<?xml version="1.0" encoding="UTF-8"?>
<!DOCTYPE svg PUBLIC "-//W3C//DTD SVG 1.1//EN" "http://www.w3.org/Graphics/SVG/1.1/DTD/svg11.dtd">
<svg xmlns="http://www.w3.org/2000/svg" version="1.1" width="1920px" height="594px" style="shape-rendering:geometricPrecision; text-rendering:geometricPrecision; image-rendering:optimizeQuality; fill-rule:evenodd; clip-rule:evenodd" xmlns:xlink="http://www.w3.org/1999/xlink">
<g><path style="opacity:1" fill="#0d1116" d="M -0.5,-0.5 C 639.5,-0.5 1279.5,-0.5 1919.5,-0.5C 1919.5,95.1667 1919.5,190.833 1919.5,286.5C 1912.07,285.152 1904.74,283.819 1897.5,282.5C 1895.13,280.333 1892.46,280 1889.5,281.5C 1886.17,280.833 1882.83,280.167 1879.5,279.5C 1877.55,277.258 1875.21,276.924 1872.5,278.5C 1776.38,262.914 1680.05,249.914 1583.5,239.5C 1582.83,238.733 1581.99,238.066 1581,237.5C 1577.27,238.46 1573.44,238.793 1569.5,238.5C 1258.4,207.597 946.064,199.597 632.5,214.5C 586.889,217.09 541.556,219.757 496.5,222.5C 489.492,222.334 482.492,222.5 475.5,223C 474.944,223.383 474.611,223.883 474.5,224.5C 419.698,228.115 365.031,232.781 310.5,238.5C 307.421,238.74 304.421,238.407 301.5,237.5C 300.261,237.942 299.261,238.609 298.5,239.5C 239.02,245.544 179.52,252.878 120,261.5C 118.486,261.23 116.986,260.897 115.5,260.5C 112.636,262.299 109.469,263.299 106,263.5C 73.3751,268.222 40.8751,273.222 8.5,278.5C 5.36253,277.221 2.36253,277.555 -0.5,279.5C -0.5,186.167 -0.5,92.8333 -0.5,-0.5 Z"/></g>
<g><path style="opacity:1" fill="#294969" d="M 1915.5,282.5 C 1917.5,189.506 1918.16,96.1726 1917.5,2.5C 1278.83,2.5 640.167,2.5 1.5,2.5C 1.5,93.5 1.5,184.5 1.5,275.5C 0.500236,184.904 0.166903,93.5706 0.5,1.5C 639.833,1.5 1279.17,1.5 1918.5,1.5C 1918.5,95.5 1918.5,189.5 1918.5,283.5C 1917.21,283.737 1916.21,283.404 1915.5,282.5 Z"/></g>
<g><path style="opacity:1" fill="#5292d2" d="M 1915.5,282.5 C 1740.79,252.392 1564.79,231.559 1387.5,220C 1385.63,219.015 1383.63,218.515 1381.5,218.5C 1378.34,218.923 1375.18,219.257 1372,219.5C 1335.94,216.246 1299.78,213.746 1263.5,212C 1155.87,207.676 1048.2,205.176 940.5,204.5C 832.404,205.186 724.404,207.686 616.5,212C 582.765,213.815 549.098,215.815 515.5,218C 510.429,219.749 505.262,219.915 500,218.5C 498.033,218.542 496.199,219.042 494.5,220C 453.145,222.668 411.812,225.668 370.5,229C 350.5,231 330.5,233 310.5,235C 307.618,236.705 304.618,236.871 301.5,235.5C 294.86,236.844 288.193,238.01 281.5,239C 260.99,240.291 240.657,242.291 220.5,245C 218.315,246.596 215.981,246.763 213.5,245.5C 143.09,255.087 72.4236,265.087 1.5,275.5C 1.5,184.5 1.5,93.5 1.5,2.5C 640.167,2.5 1278.83,2.5 1917.5,2.5C 1918.16,96.1726 1917.5,189.506 1915.5,282.5 Z"/></g>
<g><path style="opacity:1" fill="#64b1fe" d="M 1569.5,238.5 C 1573.97,239.486 1578.64,239.819 1583.5,239.5C 1680.05,249.914 1776.38,262.914 1872.5,278.5C 1874.61,279.468 1876.94,279.802 1879.5,279.5C 1882.83,280.167 1886.17,280.833 1889.5,281.5C 1891.95,282.473 1894.61,282.806 1897.5,282.5C 1904.74,283.819 1912.07,285.152 1919.5,286.5C 1919.5,322.167 1919.5,357.833 1919.5,393.5C 1917.52,403.781 1916.86,414.448 1917.5,425.5C 1766.31,470.37 1612.48,501.037 1456,517.5C 1416.25,523.328 1376.08,527.828 1335.5,531C 1041.92,555.387 748.757,552.554 456,522.5C 370.773,512.132 285.607,499.299 200.5,484C 133.672,470.878 67.3386,455.045 1.5,436.5C 2.1495,421.794 1.48284,407.461 -0.5,393.5C -0.5,355.833 -0.5,318.167 -0.5,280.5C 2.65528,280.01 5.65528,279.344 8.5,278.5C 40.8751,273.222 73.3751,268.222 106,263.5C 109.469,263.299 112.636,262.299 115.5,260.5C 116.986,260.897 118.486,261.23 120,261.5C 179.52,252.878 239.02,245.544 298.5,239.5C 302.702,239.817 306.702,239.483 310.5,238.5C 365.031,232.781 419.698,228.115 474.5,224.5C 481.965,223.899 489.298,223.232 496.5,222.5C 541.556,219.757 586.889,217.09 632.5,214.5C 946.064,199.597 1258.4,207.597 1569.5,238.5 Z"/></g>
<g><path style="opacity:1" fill="#2f5378" d="M 496.5,222.5 C 489.298,223.232 481.965,223.899 474.5,224.5C 474.611,223.883 474.944,223.383 475.5,223C 482.492,222.5 489.492,222.334 496.5,222.5 Z"/></g>
<g><path style="opacity:1" fill="#355e87" d="M 310.5,238.5 C 306.702,239.483 302.702,239.817 298.5,239.5C 299.261,238.609 300.261,237.942 301.5,237.5C 304.421,238.407 307.421,238.74 310.5,238.5 Z"/></g>
<g><path style="opacity:1" fill="#325a80" d="M 1583.5,239.5 C 1578.64,239.819 1573.97,239.486 1569.5,238.5C 1573.44,238.793 1577.27,238.46 1581,237.5C 1581.99,238.066 1582.83,238.733 1583.5,239.5 Z"/></g>
<g><path style="opacity:1" fill="#3f6f9f" d="M 8.5,278.5 C 5.65528,279.344 2.65528,280.01 -0.5,280.5C -0.5,280.167 -0.5,279.833 -0.5,279.5C 2.36253,277.555 5.36253,277.221 8.5,278.5 Z"/></g>
<g><path style="opacity:1" fill="#3e6d9c" d="M 1879.5,279.5 C 1876.94,279.802 1874.61,279.468 1872.5,278.5C 1875.21,276.924 1877.55,277.258 1879.5,279.5 Z"/></g>
<g><path style="opacity:1" fill="#3e6c9b" d="M 1897.5,282.5 C 1894.61,282.806 1891.95,282.473 1889.5,281.5C 1892.46,280 1895.13,280.333 1897.5,282.5 Z"/></g>
<g><path style="opacity:0.855" fill="#020406" d="M -0.5,394.5 C 0.166667,408.5 0.833333,422.5 1.5,436.5C 67.3386,455.045 133.672,470.878 200.5,484C 285.607,499.299 370.773,512.132 456,522.5C 748.757,552.554 1041.92,555.387 1335.5,531C 1376.08,527.828 1416.25,523.328 1456,517.5C 1612.48,501.037 1766.31,470.37 1917.5,425.5C 1918.17,415.167 1918.83,404.833 1919.5,394.5C 1919.5,405.833 1919.5,417.167 1919.5,428.5C 1890.82,436.449 1861.82,445.282 1832.5,455C 1805.19,459.287 1777.85,465.954 1750.5,475C 1741.09,476.073 1731.76,477.406 1722.5,479C 1701.81,485.171 1680.81,490.004 1659.5,493.5C 1654.24,492.807 1649.08,492.807 1644,493.5C 1539.35,512.692 1432.52,526.525 1323.5,535C 1323,535.5 1322.5,536 1322,536.5C 1307.97,536.015 1293.97,537.015 1280,539.5C 1276.72,538.135 1273.72,538.468 1271,540.5C 1268.93,539.866 1266.76,539.532 1264.5,539.5C 1251.35,540.041 1238.35,541.374 1225.5,543.5C 1222.72,542.88 1219.89,542.547 1217,542.5C 1201.02,543.114 1185.19,544.447 1169.5,546.5C 1166.05,545.87 1162.55,545.537 1159,545.5C 1137.19,546.287 1115.52,547.62 1094,549.5C 1088.41,548.844 1082.75,548.511 1077,548.5C 1031.27,549.564 985.602,550.564 940,551.5C 894.546,550.714 849.046,549.714 803.5,548.5C 797.785,548.522 792.118,548.855 786.5,549.5C 764.801,547.462 742.968,546.129 721,545.5C 717.447,545.537 713.947,545.87 710.5,546.5C 694.814,544.376 678.981,543.043 663,542.5C 660.245,542.525 657.578,542.859 655,543.5C 628.612,540.633 602.278,538.3 576,536.5C 518.014,532.206 459.514,526.373 400.5,519C 389.031,517.817 377.698,515.984 366.5,513.5C 359.226,513.866 352.059,512.866 345,510.5C 337.878,511.007 330.878,510.007 324,507.5C 319.242,508.154 314.575,507.487 310,505.5C 222.361,492.908 134.195,475.408 45.5,453C 30.1183,448.818 14.785,444.318 -0.5,439.5C -0.5,424.5 -0.5,409.5 -0.5,394.5 Z"/></g>
<g><path style="opacity:1" fill="#325a80" d="M -0.5,394.5 C -0.5,394.167 -0.5,393.833 -0.5,393.5C 1.48284,407.461 2.1495,421.794 1.5,436.5C 0.833333,422.5 0.166667,408.5 -0.5,394.5 Z"/></g>
<g><path style="opacity:1" fill="#32587f" d="M 1919.5,393.5 C 1919.5,393.833 1919.5,394.167 1919.5,394.5C 1918.83,404.833 1918.17,415.167 1917.5,425.5C 1916.86,414.448 1917.52,403.781 1919.5,393.5 Z"/></g>
</svg>
