<?xml version="1.0" encoding="UTF-8"?>
<!DOCTYPE svg PUBLIC "-//W3C//DTD SVG 1.1//EN" "http://www.w3.org/Graphics/SVG/1.1/DTD/svg11.dtd">
<svg xmlns="http://www.w3.org/2000/svg" version="1.1" width="188px" height="72px" style="shape-rendering:geometricPrecision; text-rendering:geometricPrecision; image-rendering:optimizeQuality; fill-rule:evenodd; clip-rule:evenodd" xmlns:xlink="http://www.w3.org/1999/xlink">
<g><path style="opacity:0.815" fill="#05070b" d="M 65.5,2.5 C 72.6549,1.34485 79.9882,1.17818 87.5,2C 90.0472,4.05403 92.7139,5.88736 95.5,7.5C 94.828,8.26739 93.9947,8.93406 93,9.5C 89.7461,5.63866 85.5794,3.47199 80.5,3C 75.5111,2.50074 70.5111,2.33407 65.5,2.5 Z"/></g>
<g><path style="opacity:0.779" fill="#080c11" d="M 155.5,15.5 C 155.539,16.7562 155.039,17.7562 154,18.5C 150.963,17.2907 147.796,16.4574 144.5,16C 139.547,9.18065 132.881,4.84732 124.5,3C 117.926,2.61352 111.592,2.44685 105.5,2.5C 114.088,1.36435 122.755,1.19768 131.5,2C 137.834,4.5091 143.167,8.34244 147.5,13.5C 150.144,14.2951 152.811,14.9618 155.5,15.5 Z"/></g>
<g><path style="opacity:0.988" fill="#5292d1" d="M 65.5,2.5 C 70.5111,2.33407 75.5111,2.50074 80.5,3C 85.5794,3.47199 89.7461,5.63866 93,9.5C 93.9947,8.93406 94.828,8.26739 95.5,7.5C 98.4069,5.08009 101.74,3.41342 105.5,2.5C 111.592,2.44685 117.926,2.61352 124.5,3C 132.881,4.84732 139.547,9.18065 144.5,16C 147.796,16.4574 150.963,17.2907 154,18.5C 155.039,17.7562 155.539,16.7562 155.5,15.5C 157.913,13.9493 160.579,13.2826 163.5,13.5C 174.569,14.2384 180.235,20.2384 180.5,31.5C 180.871,38.758 178.038,44.4247 172,48.5C 169.405,54.254 165.572,58.9207 160.5,62.5C 149.954,68.5336 138.787,69.8669 127,66.5C 118.408,69.1923 109.908,68.859 101.5,65.5C 100.749,64.4265 99.7494,64.2599 98.5,65C 96.1019,66.5242 93.7686,68.0242 91.5,69.5C 84.6791,70.6546 77.6791,70.8213 70.5,70C 67.7053,68.7003 65.0387,67.2003 62.5,65.5C 52.5982,69.9059 43.0982,69.2393 34,63.5C 21.2662,70.0871 10.9329,67.4204 3,55.5C 2.33333,48.8333 2.33333,42.1667 3,35.5C 5.85814,30.4696 10.0248,27.1363 15.5,25.5C 18.5719,25.8174 21.5719,25.4841 24.5,24.5C 24.3764,23.8933 24.0431,23.56 23.5,23.5C 26.8926,16.4411 32.2259,11.4411 39.5,8.5C 39.9169,9.12395 40.5836,9.45728 41.5,9.5C 46.9165,9.2684 51.9165,8.2684 56.5,6.5C 59.0878,4.3754 62.0878,3.04207 65.5,2.5 Z"/></g>
<g><path style="opacity:1" fill="#23384f" d="M 56.5,6.5 C 51.9165,8.2684 46.9165,9.2684 41.5,9.5C 40.5836,9.45728 39.9169,9.12395 39.5,8.5C 45.0306,6.87539 50.6973,6.20873 56.5,6.5 Z"/></g>
<g><path style="opacity:0.822" fill="#020406" d="M 163.5,13.5 C 172.478,10.6081 179.478,13.2747 184.5,21.5C 184.061,24.6568 184.061,27.9901 184.5,31.5C 184.926,37.9215 182.426,42.9215 177,46.5C 174.254,54.7467 168.754,60.08 160.5,62.5C 165.572,58.9207 169.405,54.254 172,48.5C 178.038,44.4247 180.871,38.758 180.5,31.5C 180.235,20.2384 174.569,14.2384 163.5,13.5 Z"/></g>
<g><path style="opacity:0.922" fill="#1f3145" d="M 23.5,23.5 C 24.0431,23.56 24.3764,23.8933 24.5,24.5C 21.5719,25.4841 18.5719,25.8174 15.5,25.5C 17.8383,23.9605 20.5049,23.2938 23.5,23.5 Z"/></g>
<g><path style="opacity:0.678" fill="#192838" d="M 101.5,65.5 C 98.3858,67.3908 95.0525,68.7241 91.5,69.5C 93.7686,68.0242 96.1019,66.5242 98.5,65C 99.7494,64.2599 100.749,64.4265 101.5,65.5 Z"/></g>
</svg>
