<?xml version="1.0" encoding="UTF-8"?>
<!DOCTYPE svg PUBLIC "-//W3C//DTD SVG 1.1//EN" "http://www.w3.org/Graphics/SVG/1.1/DTD/svg11.dtd">
<svg xmlns="http://www.w3.org/2000/svg" version="1.1" width="102px" height="72px" style="shape-rendering:geometricPrecision; text-rendering:geometricPrecision; image-rendering:optimizeQuality; fill-rule:evenodd; clip-rule:evenodd" xmlns:xlink="http://www.w3.org/1999/xlink">
<g><path style="opacity:0.772" fill="#020305" d="M 80.5,62.5 C 84.6108,57.606 87.1108,51.9394 88,45.5C 90.706,43.1294 93.0394,40.4628 95,37.5C 99.4141,21.1627 93.9141,9.99604 78.5,4C 71.1742,3.50034 63.8409,3.33368 56.5,3.5C 57.2625,2.73209 58.2625,2.23209 59.5,2C 76.0504,-2.60054 89.217,1.89946 99,15.5C 99.8311,22.5237 99.6644,29.5237 98.5,36.5C 96.3501,39.1506 94.0168,41.6506 91.5,44C 92.1244,52.5682 88.4577,58.7349 80.5,62.5 Z"/></g>
<g><path style="opacity:0.695" fill="#000001" d="M 48.5,6.5 C 48.1344,7.69459 47.301,8.36126 46,8.5C 38.6977,5.48632 31.1977,4.81966 23.5,6.5C 31.8333,2.5 40.1667,2.5 48.5,6.5 Z"/></g>
<g><path style="opacity:0.991" fill="#5292d2" d="M 56.5,3.5 C 63.8409,3.33368 71.1742,3.50034 78.5,4C 93.9141,9.99604 99.4141,21.1627 95,37.5C 93.0394,40.4628 90.706,43.1294 88,45.5C 87.1108,51.9394 84.6108,57.606 80.5,62.5C 74.5542,68.7879 67.2209,71.1212 58.5,69.5C 51.2459,70.4268 44.5793,68.9268 38.5,65C 22.4564,67.1415 10.123,61.4749 1.5,48C 1.5,39.6667 1.5,31.3333 1.5,23C 4.47001,19.358 7.47001,15.6913 10.5,12C 14.5116,9.41333 18.8449,7.58 23.5,6.5C 31.1977,4.81966 38.6977,5.48632 46,8.5C 47.301,8.36126 48.1344,7.69459 48.5,6.5C 51.1667,5.5 53.8333,4.5 56.5,3.5 Z"/></g>
</svg>
