<?xml version="1.0" encoding="UTF-8"?>
<!DOCTYPE svg PUBLIC "-//W3C//DTD SVG 1.1//EN" "http://www.w3.org/Graphics/SVG/1.1/DTD/svg11.dtd">
<svg xmlns="http://www.w3.org/2000/svg" version="1.1" width="2174px" height="2500px" style="shape-rendering:geometricPrecision; text-rendering:geometricPrecision; image-rendering:optimizeQuality; fill-rule:evenodd; clip-rule:evenodd" xmlns:xlink="http://www.w3.org/1999/xlink">
<g><path style="opacity:1" fill="#000000" d="M 1081.5,0.5 C 1084.27,0.420741 1086.94,0.920741 1089.5,2C 1254.14,88.9851 1418.8,175.985 1583.5,263C 1606.57,274.948 1629.07,287.781 1651,301.5C 1651.67,302.5 1651.67,303.5 1651,304.5C 1639.23,311.636 1627.06,318.136 1614.5,324C 1497.15,377.558 1379.65,430.725 1262,483.5C 1201.84,452.755 1141.84,421.755 1082,390.5C 1027.38,419.727 971.88,447.227 915.5,473C 911.682,474.944 907.682,475.611 903.5,475C 871.473,461.154 839.807,446.487 808.5,431C 717.91,386.708 628.577,340.375 540.5,292C 539.421,291.044 538.255,290.211 537,289.5C 536.316,288.216 536.483,287.049 537.5,286C 606.021,247.904 675.021,210.571 744.5,174C 856.612,115.611 968.946,57.7779 1081.5,0.5 Z"/></g>
<g><path style="opacity:1" fill="#000000" d="M -0.5,1100.5 C -0.5,920.167 -0.5,739.833 -0.5,559.5C 82.8273,516.169 166.494,473.336 250.5,431C 274.471,418.93 298.971,408.097 324,398.5C 335.673,402.92 347.173,407.753 358.5,413C 576.063,518.612 791.063,628.612 1003.5,743C 1024.01,754.082 1043.68,766.416 1062.5,780C 1065.53,783.571 1064.87,786.238 1060.5,788C 1042.96,796.939 1025.29,805.605 1007.5,814C 908.354,858.156 809.521,902.99 711,948.5C 587.04,881.368 463.207,814.034 339.5,746.5C 338.833,869.833 338.167,993.167 337.5,1116.5C 247.833,1156.33 158.167,1196.17 68.5,1236C 47.0286,1245.41 25.3619,1254.24 3.5,1262.5C 1.45272,1208.36 0.11939,1154.36 -0.5,1100.5 Z"/></g>
<g><path style="opacity:1" fill="#000000" d="M -0.5,1953.5 C -0.5,1921.83 -0.5,1890.17 -0.5,1858.5C 0.584318,1772.66 2.08432,1686.66 4,1600.5C 4.48125,1583.76 5.81458,1567.1 8,1550.5C 8.55705,1543.48 11.057,1537.32 15.5,1532C 81.5445,1500.76 147.878,1470.09 214.5,1440C 688.048,1225.73 1161.71,1011.73 1635.5,798C 1671.39,781.723 1706.72,764.39 1741.5,746C 1726.18,734.67 1710.18,724.336 1693.5,715C 1630.51,679.506 1567.84,643.506 1505.5,607C 1498.78,602.979 1492.44,598.479 1486.5,593.5C 1486.98,592.522 1487.64,591.689 1488.5,591C 1616.31,528.924 1745.64,470.424 1876.5,415.5C 1888.16,419.495 1899.49,424.328 1910.5,430C 1995.15,472.322 2079.48,515.156 2163.5,558.5C 2163.83,566.667 2164.17,574.833 2164.5,583C 2163.04,714.836 2161.38,846.67 2159.5,978.5C 1804.74,1139.88 1449.74,1300.71 1094.5,1461C 918.584,1540.19 742.584,1619.19 566.5,1698C 517.406,1720.03 468.739,1743.03 420.5,1767C 417.991,1768.42 415.657,1770.09 413.5,1772C 415.539,1774.37 417.872,1776.37 420.5,1778C 432.742,1783.12 444.742,1788.79 456.5,1795C 522.004,1832.59 587.671,1869.92 653.5,1907C 656.725,1908.72 659.058,1911.22 660.5,1914.5C 659.99,1916.09 658.99,1917.25 657.5,1918C 629.463,1932.57 601.13,1946.57 572.5,1960C 473.952,2005.11 375.286,2049.94 276.5,2094.5C 184.269,2047.22 91.936,2000.22 -0.5,1953.5 Z"/></g>
<g><path style="opacity:1" fill="#000000" d="M 2164.5,1236.5 C 2165.12,1236.61 2165.62,1236.94 2166,1237.5C 2168.47,1271.78 2169.8,1306.11 2170,1340.5C 2171.98,1511.17 2171.98,1681.83 2170,1852.5C 2169.61,1875.18 2168.95,1897.84 2168,1920.5C 2167.84,1925.92 2167.17,1931.25 2166,1936.5C 2157.6,1942.95 2148.76,1948.79 2139.5,1954C 2041.78,2007.53 1943.11,2059.53 1843.5,2110C 1841.71,2110.52 1840.04,2110.19 1838.5,2109C 1668.01,2020.59 1497.68,1931.92 1327.5,1843C 1253.7,1804.27 1180.7,1764.27 1108.5,1723C 1107.13,1721.66 1105.8,1720.33 1104.5,1719C 1117.03,1711.57 1130.03,1704.9 1143.5,1699C 1241.07,1655.88 1338.4,1612.22 1435.5,1568C 1446.14,1563.46 1456.81,1563.46 1467.5,1568C 1473.91,1570.47 1480.25,1573.14 1486.5,1576C 1563.17,1616.33 1639.83,1656.67 1716.5,1697C 1752.77,1715.97 1789.43,1734.13 1826.5,1751.5C 1827.09,1751.29 1827.59,1750.96 1828,1750.5C 1831.61,1716.61 1833.61,1682.61 1834,1648.5C 1835.25,1560.83 1836.41,1473.17 1837.5,1385.5C 1946.71,1336.06 2055.71,1286.39 2164.5,1236.5 Z"/></g>
<g><path style="opacity:1" fill="#000000" d="M 1306.5,2035.5 C 1307.87,2035.34 1309.21,2035.51 1310.5,2036C 1423.66,2093.08 1536.66,2150.41 1649.5,2208C 1652.38,2209.6 1655.04,2211.43 1657.5,2213.5C 1615.62,2236.94 1572.95,2259.11 1529.5,2280C 1380.71,2352.56 1232.04,2425.4 1083.5,2498.5C 934.58,2424.37 786.247,2349.21 638.5,2273C 611.013,2258.43 584.013,2243.09 557.5,2227C 551.658,2223.25 545.991,2219.25 540.5,2215C 537.202,2212.54 534.868,2209.37 533.5,2205.5C 534.364,2203.8 535.697,2202.64 537.5,2202C 542.346,2201.81 547.012,2200.81 551.5,2199C 663.834,2149.78 775.834,2099.78 887.5,2049C 901.413,2047.81 914.747,2050.14 927.5,2056C 941.951,2062.06 956.284,2068.39 970.5,2075C 1002.68,2091.76 1035.35,2107.42 1068.5,2122C 1074.55,2123.76 1080.72,2124.93 1087,2125.5C 1099.04,2124.28 1110.54,2121.11 1121.5,2116C 1183.31,2089.24 1244.98,2062.41 1306.5,2035.5 Z"/></g>
</svg>
