<?xml version="1.0" encoding="UTF-8"?>
<!DOCTYPE svg PUBLIC "-//W3C//DTD SVG 1.1//EN" "http://www.w3.org/Graphics/SVG/1.1/DTD/svg11.dtd">
<svg xmlns="http://www.w3.org/2000/svg" version="1.1" width="30px" height="38px" style="shape-rendering:geometricPrecision; text-rendering:geometricPrecision; image-rendering:optimizeQuality; fill-rule:evenodd; clip-rule:evenodd" xmlns:xlink="http://www.w3.org/1999/xlink">
<g><path style="opacity:0.762" fill="#000000" d="M 12.5,1.5 C 16.2663,1.71534 19.5997,3.04868 22.5,5.5C 20.891,6.88826 19.0577,7.88826 17,8.5C 14.8824,7.80411 12.7158,7.63745 10.5,8C 8.99842,7.41692 7.66508,6.58359 6.5,5.5C 8.56544,4.1433 10.5654,2.80996 12.5,1.5 Z"/></g>
<g><path style="opacity:0.798" fill="#000000" d="M -0.5,19.5 C -0.5,15.8333 -0.5,12.1667 -0.5,8.5C 0.915003,7.71056 2.415,7.04389 4,6.5C 7.92674,7.87627 11.4267,9.87627 14.5,12.5C 11.0854,15.9069 7.91871,15.9069 5,12.5C 5.53179,16.7822 3.69845,19.1155 -0.5,19.5 Z"/></g>
<g><path style="opacity:0.82" fill="#000000" d="M 29.5,8.5 C 29.5,10.8333 29.5,13.1667 29.5,15.5C 21.8595,18.9858 14.1928,22.4858 6.5,26C 8.88559,26.2835 9.55226,27.2835 8.5,29C 5.54368,30.6626 2.54368,30.8293 -0.5,29.5C -0.5,26.8333 -0.5,24.1667 -0.5,21.5C 7.18307,18.4372 14.8497,15.2705 22.5,12C 21.5,11.1667 20.5,10.3333 19.5,9.5C 22.7388,6.4943 26.0721,6.16097 29.5,8.5 Z"/></g>
<g><path style="opacity:0.801" fill="#000000" d="M 29.5,18.5 C 29.5,22.1667 29.5,25.8333 29.5,29.5C 27.8297,29.7512 26.3297,30.4178 25,31.5C 24.3292,30.7476 23.4959,30.4142 22.5,30.5C 19.8975,28.8583 17.2308,27.1916 14.5,25.5C 17.2645,22.2612 20.2645,21.9279 23.5,24.5C 24.4519,22.9547 24.7852,21.288 24.5,19.5C 26.2161,19.3713 27.8828,19.038 29.5,18.5 Z"/></g>
<g><path style="opacity:0.735" fill="#000000" d="M 22.5,30.5 C 22.5,31.5 22.5,32.5 22.5,33.5C 19.8445,34.158 17.1778,34.8246 14.5,35.5C 11.8222,34.8246 9.15551,34.158 6.5,33.5C 6.5,32.5 6.5,31.5 6.5,30.5C 11.8333,30.5 17.1667,30.5 22.5,30.5 Z"/></g>
</svg>
