<?xml version="1.0" encoding="UTF-8"?>
<!DOCTYPE svg PUBLIC "-//W3C//DTD SVG 1.1//EN" "http://www.w3.org/Graphics/SVG/1.1/DTD/svg11.dtd">
<svg xmlns="http://www.w3.org/2000/svg" version="1.1" width="852px" height="493px" style="shape-rendering:geometricPrecision; text-rendering:geometricPrecision; image-rendering:optimizeQuality; fill-rule:evenodd; clip-rule:evenodd" xmlns:xlink="http://www.w3.org/1999/xlink">
<g><path style="opacity:0.936" fill="#232323" d="M 791.5,202.5 C 790.362,205.304 790.195,208.304 791,211.5C 791.383,212.056 791.883,212.389 792.5,212.5C 793.369,214.717 793.702,217.05 793.5,219.5C 792.167,221.833 792.167,224.167 793.5,226.5C 794.6,227.605 795.267,228.938 795.5,230.5C 792.752,230.402 792.086,231.402 793.5,233.5C 793.833,234.167 794.167,234.833 794.5,235.5C 793.12,235.962 792.453,236.962 792.5,238.5C 792.435,243.257 792.768,247.923 793.5,252.5C 791.663,266.186 789.497,279.853 787,293.5C 783.431,304.504 779.264,315.171 774.5,325.5C 774.5,326.167 774.5,326.833 774.5,327.5C 772.629,327.859 771.129,328.859 770,330.5C 761.265,344.235 750.432,356.069 737.5,366C 736.177,366.816 735.511,367.983 735.5,369.5C 735.5,370.167 735.167,370.5 734.5,370.5C 734.44,369.957 734.107,369.624 733.5,369.5C 729.136,371.443 726.136,374.443 724.5,378.5C 724.167,378.5 723.833,378.5 723.5,378.5C 722.749,377.427 721.749,377.26 720.5,378C 714.365,381.31 708.365,384.81 702.5,388.5C 701.614,389.325 701.281,390.325 701.5,391.5C 701.167,391.5 700.833,391.5 700.5,391.5C 699.065,390.904 697.398,390.904 695.5,391.5C 695.5,392.5 695.5,393.5 695.5,394.5C 695.167,394.5 694.833,394.5 694.5,394.5C 694.265,393.903 693.765,393.57 693,393.5C 690.815,393.698 689.315,394.698 688.5,396.5C 688.5,397.167 688.167,397.5 687.5,397.5C 685.691,396.709 683.691,396.709 681.5,397.5C 681.5,398.5 681.5,399.5 681.5,400.5C 679.95,401.441 678.284,402.107 676.5,402.5C 672.087,401.563 668.087,402.73 664.5,406C 661.832,406.567 659.166,407.067 656.5,407.5C 656.5,408.5 656.5,409.5 656.5,410.5C 655.833,410.5 655.167,410.5 654.5,410.5C 654.265,409.903 653.765,409.57 653,409.5C 650.889,410.472 648.722,411.305 646.5,412C 645.748,412.671 645.414,413.504 645.5,414.5C 644.391,414.557 643.391,414.89 642.5,415.5C 642.179,413.952 641.179,413.285 639.5,413.5C 639.5,414.5 639.5,415.5 639.5,416.5C 638.609,417.11 637.609,417.443 636.5,417.5C 635.053,416.115 634.053,416.448 633.5,418.5C 632.041,418.433 630.708,418.766 629.5,419.5C 629.179,417.952 628.179,417.285 626.5,417.5C 626.5,418.5 626.5,419.5 626.5,420.5C 625.041,420.433 623.708,420.766 622.5,421.5C 621.053,420.115 620.053,420.448 619.5,422.5C 617.958,423.301 616.292,423.634 614.5,423.5C 612.712,422.378 610.712,422.211 608.5,423C 607.663,424.011 607.33,425.178 607.5,426.5C 606.5,426.5 605.5,426.5 604.5,426.5C 603.053,425.115 602.053,425.448 601.5,427.5C 599.621,428.341 597.621,428.675 595.5,428.5C 595.265,427.903 594.765,427.57 594,427.5C 591.704,427.859 589.871,428.859 588.5,430.5C 586.626,431.285 584.626,431.952 582.5,432.5C 580.712,431.378 578.712,431.211 576.5,432C 575.748,432.671 575.414,433.504 575.5,434.5C 573.097,434.448 570.764,434.781 568.5,435.5C 565.282,433.816 562.615,434.483 560.5,437.5C 557.167,438.167 553.833,438.833 550.5,439.5C 548.735,438.539 546.735,438.205 544.5,438.5C 544.5,439.5 544.5,440.5 544.5,441.5C 538.575,442.871 532.575,443.871 526.5,444.5C 523.188,443.263 519.855,443.596 516.5,445.5C 515.702,445.957 515.369,446.624 515.5,447.5C 477.377,453.658 439.377,459.992 401.5,466.5C 401.631,465.761 401.464,465.094 401,464.5C 389.623,465.311 378.456,466.977 367.5,469.5C 366.167,469.5 364.833,469.5 363.5,469.5C 363.5,470.5 363.5,471.5 363.5,472.5C 362.735,472.077 361.902,471.743 361,471.5C 355.423,472.697 349.923,474.031 344.5,475.5C 342.952,474.206 340.952,473.539 338.5,473.5C 336.304,473.505 334.304,473.838 332.5,474.5C 330.821,474.285 329.821,474.952 329.5,476.5C 326.124,477.076 322.791,477.743 319.5,478.5C 318.129,477.213 316.295,476.547 314,476.5C 312.167,476.667 310.333,476.833 308.5,477C 307.944,477.383 307.611,477.883 307.5,478.5C 303.317,479.907 298.984,480.574 294.5,480.5C 293.167,479.167 291.833,479.167 290.5,480.5C 284.262,482.679 277.929,483.346 271.5,482.5C 269.735,481.539 267.735,481.205 265.5,481.5C 265.5,482.5 265.5,483.5 265.5,484.5C 264.609,483.89 263.609,483.557 262.5,483.5C 259.609,482.597 256.609,482.264 253.5,482.5C 253.5,483.5 253.5,484.5 253.5,485.5C 252.609,484.89 251.609,484.557 250.5,484.5C 249.833,483.167 249.167,483.167 248.5,484.5C 245.833,484.5 243.167,484.5 240.5,484.5C 240.5,483.5 240.5,482.5 240.5,481.5C 239.178,481.33 238.011,481.663 237,482.5C 236.612,481.572 235.945,480.905 235,480.5C 233.667,481.833 232.333,481.833 231,480.5C 229.97,480.836 229.47,481.503 229.5,482.5C 226.175,483.185 222.842,482.851 219.5,481.5C 219.03,480.307 218.03,479.64 216.5,479.5C 215.274,479.52 214.274,479.853 213.5,480.5C 213.167,480.5 212.833,480.5 212.5,480.5C 208.449,478.619 204.115,477.285 199.5,476.5C 198.743,474.081 197.077,472.747 194.5,472.5C 189.677,473.154 185.01,473.487 180.5,473.5C 179.5,473.5 178.5,473.5 177.5,473.5C 177.5,472.5 177.5,471.5 177.5,470.5C 163.941,467.421 151.275,462.255 139.5,455C 138.251,454.26 137.251,454.427 136.5,455.5C 135.5,455.167 134.833,454.5 134.5,453.5C 126.052,446.756 117.719,439.756 109.5,432.5C 87.6611,407.821 72.9944,379.487 65.5,347.5C 64.8165,347.137 64.1499,346.804 63.5,346.5C 63.5,345.5 63.5,344.5 63.5,343.5C 64.4614,341.735 64.7947,339.735 64.5,337.5C 63.1667,337.5 61.8333,337.5 60.5,337.5C 59.5829,334.995 59.5829,332.662 60.5,330.5C 61.7422,327.26 61.5755,323.926 60,320.5C 59.3292,319.748 58.4959,319.414 57.5,319.5C 55.5297,303.539 52.863,287.706 49.5,272C 50.3985,269.906 51.0651,267.74 51.5,265.5C 49.0045,256.73 49.0045,248.064 51.5,239.5C 48.8333,237.5 48.8333,235.5 51.5,233.5C 52.0881,185.825 71.4214,146.659 109.5,116C 120.694,107.904 132.361,100.57 144.5,94C 160.057,86.7151 175.724,80.0484 191.5,74C 275.571,54.28 360.071,38.4466 445,26.5C 456.723,24.6609 468.39,22.6609 480,20.5C 486.659,20.4187 493.325,20.4187 500,20.5C 507.935,18.1666 515.935,16.8333 524,16.5C 526.835,17.5273 529.668,17.3606 532.5,16C 566.511,13.1024 600.511,13.4357 634.5,17C 669.879,20.7395 701.879,33.2395 730.5,54.5C 741.634,65.4644 751.468,77.4644 760,90.5C 770.492,111.169 778.492,132.836 784,155.5C 786.366,171.23 788.866,186.897 791.5,202.5 Z"/></g>
<g><path style="opacity:0.014" fill="#275ac5" d="M 718.5,23.5 C 720.465,23.9483 720.798,24.9483 719.5,26.5C 718.614,25.675 718.281,24.675 718.5,23.5 Z"/></g>
<g><path style="opacity:1" fill="#67adf4" d="M 731.5,69.5 C 732.419,72.0892 734.086,74.0892 736.5,75.5C 748.134,88.4274 756.968,103.094 763,119.5C 765.612,127.169 768.112,134.836 770.5,142.5C 770.543,151.777 772.543,160.444 776.5,168.5C 784.017,202.431 786.35,236.764 783.5,271.5C 781.898,275.239 780.898,279.239 780.5,283.5C 779.922,286.28 779.255,288.947 778.5,291.5C 777.262,293.214 776.595,295.214 776.5,297.5C 775.178,297.33 774.011,297.663 773,298.5C 771.333,302.5 769.667,306.5 768,310.5C 763.63,314.206 759.963,318.539 757,323.5C 747.884,332.785 738.717,341.785 729.5,350.5C 727.692,350.491 726.025,350.991 724.5,352C 720.195,355.286 715.529,358.119 710.5,360.5C 708.487,361.969 706.82,363.636 705.5,365.5C 700.741,367.416 696.074,369.582 691.5,372C 690.833,373.333 689.833,374.333 688.5,375C 684.888,376.15 681.222,376.983 677.5,377.5C 677.5,378.5 677.5,379.5 677.5,380.5C 674.154,381.036 670.82,381.703 667.5,382.5C 666.287,382.747 665.62,383.414 665.5,384.5C 661.821,384.724 658.154,385.058 654.5,385.5C 654.5,386.5 654.5,387.5 654.5,388.5C 648.827,388.991 643.494,390.324 638.5,392.5C 629.317,395.583 619.984,398.583 610.5,401.5C 604.238,403.128 597.905,404.462 591.5,405.5C 591.291,406.086 590.957,406.586 590.5,407C 588.167,407.333 585.833,407.667 583.5,408C 581.39,409.57 579.057,410.737 576.5,411.5C 567.718,413.149 558.884,414.482 550,415.5C 540.741,417.619 531.574,420.119 522.5,423C 501.475,425.749 480.808,429.249 460.5,433.5C 438.695,436.713 417.028,440.046 395.5,443.5C 392.5,444.167 389.5,444.833 386.5,445.5C 364.216,447.394 342.216,450.394 320.5,454.5C 297.284,457.769 273.951,460.102 250.5,461.5C 228.751,459.305 207.084,456.305 185.5,452.5C 177.534,450.421 169.534,448.254 161.5,446C 154.449,442.299 147.116,439.299 139.5,437C 131.222,431.722 123.222,426.055 115.5,420C 112.13,416.965 109.13,413.632 106.5,410C 105.207,409.51 103.873,409.343 102.5,409.5C 95.7788,400.053 90.1121,390.053 85.5,379.5C 85.0198,376.557 84.0198,373.89 82.5,371.5C 81.8333,370.5 81.1667,369.5 80.5,368.5C 80.2766,364.838 79.2766,361.505 77.5,358.5C 77.5,357.833 77.5,357.167 77.5,356.5C 76.4831,351.378 75.1498,346.378 73.5,341.5C 71.8602,338.09 70.8602,334.423 70.5,330.5C 70.7847,327.171 70.1181,324.171 68.5,321.5C 67.6727,316.523 67.006,311.523 66.5,306.5C 66.3303,301.141 65.8303,295.808 65,290.5C 64.6174,289.944 64.1174,289.611 63.5,289.5C 62.6076,284.562 62.2743,279.562 62.5,274.5C 62.5,257.167 62.5,239.833 62.5,222.5C 62.5,221.5 62.5,220.5 62.5,219.5C 63.6874,216.054 64.3541,212.387 64.5,208.5C 66.0674,198.624 68.5674,188.958 72,179.5C 73.9409,175.278 76.1076,171.278 78.5,167.5C 80.0174,167.489 81.1841,166.823 82,165.5C 86.224,157.943 91.224,150.943 97,144.5C 97.4828,143.552 97.6495,142.552 97.5,141.5C 99.5869,140.415 100.92,138.749 101.5,136.5C 116.854,121.113 134.52,109.446 154.5,101.5C 157.198,101.155 159.198,99.8218 160.5,97.5C 163.838,95.3341 167.505,94.0007 171.5,93.5C 176.491,92.6284 180.824,90.6284 184.5,87.5C 186.882,85.9539 189.549,85.2872 192.5,85.5C 195.738,84.3668 199.071,83.5334 202.5,83C 203.056,82.6174 203.389,82.1174 203.5,81.5C 213.714,77.9206 224.381,75.5873 235.5,74.5C 240.433,73.7403 245.099,72.407 249.5,70.5C 260.651,68.2911 271.651,65.9578 282.5,63.5C 285.187,63.6641 287.854,63.4974 290.5,63C 291.416,62.7216 292.082,62.2216 292.5,61.5C 298.871,60.6561 305.204,59.6561 311.5,58.5C 323.828,57.0508 335.828,54.7175 347.5,51.5C 352.1,51.7204 356.433,51.0538 360.5,49.5C 360.833,49.5 361.167,49.5 361.5,49.5C 368.873,48.9973 376.206,48.1639 383.5,47C 383.167,46.6667 382.833,46.3333 382.5,46C 387.076,45.7285 391.409,44.8951 395.5,43.5C 395.833,43.5 396.167,43.5 396.5,43.5C 401.596,43.9561 406.262,42.9561 410.5,40.5C 412.5,40.5 414.5,40.5 416.5,40.5C 420.387,40.3541 424.054,39.6874 427.5,38.5C 428.167,38.5 428.833,38.5 429.5,38.5C 433.36,38.1916 437.026,37.5249 440.5,36.5C 445.405,35.4282 450.405,34.7615 455.5,34.5C 462.736,34.2354 469.736,33.2354 476.5,31.5C 491.156,30.2242 505.823,29.0575 520.5,28C 522.058,27.79 523.391,27.29 524.5,26.5C 559.331,24.0619 594.331,23.8953 629.5,26C 663.43,29.081 694.096,40.4143 721.5,60C 724.729,63.3986 728.062,66.5653 731.5,69.5 Z"/></g>
<g><path style="opacity:1" fill="#5b7c9d" d="M 524.5,26.5 C 523.391,27.29 522.058,27.79 520.5,28C 505.823,29.0575 491.156,30.2242 476.5,31.5C 492.244,28.7324 508.244,27.0657 524.5,26.5 Z"/></g>
<g><path style="opacity:1" fill="#5f81a3" d="M 476.5,31.5 C 469.736,33.2354 462.736,34.2354 455.5,34.5C 462.251,32.6784 469.251,31.6784 476.5,31.5 Z"/></g>
<g><path style="opacity:1" fill="#516b86" d="M 440.5,36.5 C 437.026,37.5249 433.36,38.1916 429.5,38.5C 429.611,37.8826 429.944,37.3826 430.5,37C 433.817,36.5017 437.15,36.335 440.5,36.5 Z"/></g>
<g><path style="opacity:1" fill="#6183a5" d="M 427.5,38.5 C 424.054,39.6874 420.387,40.3541 416.5,40.5C 416.918,39.7784 417.584,39.2784 418.5,39C 421.482,38.502 424.482,38.3354 427.5,38.5 Z"/></g>
<g><path style="opacity:1" fill="#6998c1" d="M 410.5,40.5 C 406.262,42.9561 401.596,43.9561 396.5,43.5C 401.05,42.5085 405.717,41.5085 410.5,40.5 Z"/></g>
<g><path style="opacity:1" fill="#6697c7" d="M 395.5,43.5 C 391.409,44.8951 387.076,45.7285 382.5,46C 382.833,46.3333 383.167,46.6667 383.5,47C 376.206,48.1639 368.873,48.9973 361.5,49.5C 372.599,46.8566 383.932,44.8566 395.5,43.5 Z"/></g>
<g><path style="opacity:1" fill="#414c6d" d="M 637.5,53.5 C 630.296,49.5441 622.63,48.5441 614.5,50.5C 614.918,49.7784 615.584,49.2784 616.5,49C 623.461,47.8047 630.128,48.638 636.5,51.5C 637.298,51.9569 637.631,52.6236 637.5,53.5 Z"/></g>
<g><path style="opacity:1" fill="#5f83a6" d="M 360.5,49.5 C 356.433,51.0538 352.1,51.7204 347.5,51.5C 351.567,49.9462 355.9,49.2796 360.5,49.5 Z"/></g>
<g><path style="opacity:1" fill="#fafafa" d="M 637.5,53.5 C 639.461,55.9635 641.628,58.2968 644,60.5C 645.478,63.1579 646.645,65.8245 647.5,68.5C 649.741,92.092 639.074,102.925 615.5,101C 613.934,100.392 612.6,99.5585 611.5,98.5C 611.027,97.0937 610.027,96.427 608.5,96.5C 603.06,91.7129 599.726,85.7129 598.5,78.5C 598.127,65.9129 603.461,56.5796 614.5,50.5C 622.63,48.5441 630.296,49.5441 637.5,53.5 Z"/></g>
<g><path style="opacity:1" fill="#5a719c" d="M 682.5,58.5 C 676.656,54.978 670.322,53.8113 663.5,55C 661.609,56.4424 659.609,57.6091 657.5,58.5C 657.167,58.5 656.833,58.5 656.5,58.5C 662.366,52.4098 669.366,50.9098 677.5,54C 679.618,55.0491 681.284,56.5491 682.5,58.5 Z"/></g>
<g><path style="opacity:1" fill="#5d7d9d" d="M 347.5,51.5 C 335.828,54.7175 323.828,57.0508 311.5,58.5C 323.106,54.9402 335.106,52.6069 347.5,51.5 Z"/></g>
<g><path style="opacity:1" fill="#f8f8f8" d="M 682.5,58.5 C 688.634,64.9093 690.968,72.576 689.5,81.5C 688.205,85.4234 686.372,89.0901 684,92.5C 681.086,94.1784 678.586,96.1784 676.5,98.5C 663.451,100.266 654.951,94.9326 651,82.5C 650.501,78.5138 650.334,74.5138 650.5,70.5C 651.924,66.051 654.258,62.051 657.5,58.5C 659.609,57.6091 661.609,56.4424 663.5,55C 670.322,53.8113 676.656,54.978 682.5,58.5 Z"/></g>
<g><path style="opacity:1" fill="#4b587b" d="M 682.5,58.5 C 685.904,60.5769 688.404,63.5769 690,67.5C 691.617,72.1762 691.783,76.8428 690.5,81.5C 690.167,81.5 689.833,81.5 689.5,81.5C 690.968,72.576 688.634,64.9093 682.5,58.5 Z"/></g>
<g><path style="opacity:1" fill="#3f4967" d="M 614.5,50.5 C 603.461,56.5796 598.127,65.9129 598.5,78.5C 597.596,79.209 597.263,80.209 597.5,81.5C 594.895,66.742 600.562,56.4087 614.5,50.5 Z"/></g>
<g><path style="opacity:1" fill="#6284a6" d="M 292.5,61.5 C 292.082,62.2216 291.416,62.7216 290.5,63C 287.854,63.4974 285.187,63.6641 282.5,63.5C 285.627,62.4192 288.96,61.7526 292.5,61.5 Z"/></g>
<g><path style="opacity:1" fill="#2b3041" d="M 637.5,53.5 C 639.426,54.2423 641.259,55.2423 643,56.5C 645.619,59.406 647.453,62.7393 648.5,66.5C 647.662,66.8417 647.328,67.5084 647.5,68.5C 646.645,65.8245 645.478,63.1579 644,60.5C 641.628,58.2968 639.461,55.9635 637.5,53.5 Z"/></g>
<g><path style="opacity:1" fill="#2f3652" d="M 656.5,58.5 C 656.833,58.5 657.167,58.5 657.5,58.5C 654.258,62.051 651.924,66.051 650.5,70.5C 649.833,69.1667 649.167,67.8333 648.5,66.5C 649.239,66.631 649.906,66.4643 650.5,66C 652.159,63.1563 654.159,60.6563 656.5,58.5 Z"/></g>
<g><path style="opacity:1" fill="#1a1a1a" d="M 635.5,75.5 C 633.958,76.3007 632.292,76.634 630.5,76.5C 628.623,75.3409 628.123,73.6742 629,71.5C 633.891,68.1119 636.058,69.4452 635.5,75.5 Z"/></g>
<g><path style="opacity:1" fill="#191919" d="M 663.5,69.5 C 669.158,68.6794 670.825,70.846 668.5,76C 662.731,77.1777 661.064,75.011 663.5,69.5 Z"/></g>
<g><path style="opacity:1" fill="#6383a4" d="M 731.5,69.5 C 733.914,70.9108 735.581,72.9108 736.5,75.5C 734.086,74.0892 732.419,72.0892 731.5,69.5 Z"/></g>
<g><path style="opacity:1" fill="#5d7f9e" d="M 249.5,70.5 C 245.099,72.407 240.433,73.7403 235.5,74.5C 235.611,73.8826 235.944,73.3826 236.5,73C 240.787,71.8466 245.121,71.0133 249.5,70.5 Z"/></g>
<g><path style="opacity:1" fill="#9c9c9c" d="M 635.5,75.5 C 635.209,76.6491 634.376,77.3158 633,77.5C 631.93,77.472 631.097,77.1386 630.5,76.5C 631.097,77.1386 631.93,77.472 633,77.5C 634.376,77.3158 635.209,76.6491 635.5,75.5 Z"/></g>
<g><path style="opacity:1" fill="#5e82a3" d="M 203.5,81.5 C 203.389,82.1174 203.056,82.6174 202.5,83C 199.071,83.5334 195.738,84.3668 192.5,85.5C 192.611,84.8826 192.944,84.3826 193.5,84C 196.802,82.9738 200.135,82.1404 203.5,81.5 Z"/></g>
<g><path style="opacity:1" fill="#112051" d="M 579.5,90.5 C 579.167,90.5 578.833,90.5 578.5,90.5C 577.378,88.7116 577.211,86.7116 578,84.5C 578.505,86.5183 579.005,88.5183 579.5,90.5 Z"/></g>
<g><path style="opacity:1" fill="#262736" d="M 689.5,81.5 C 689.833,81.5 690.167,81.5 690.5,81.5C 689.363,90.1234 684.696,95.7901 676.5,98.5C 678.586,96.1784 681.086,94.1784 684,92.5C 686.372,89.0901 688.205,85.4234 689.5,81.5 Z"/></g>
<g><path style="opacity:1" fill="#5d7d9c" d="M 184.5,87.5 C 180.824,90.6284 176.491,92.6284 171.5,93.5C 175.586,91.1299 179.919,89.1299 184.5,87.5 Z"/></g>
<g><path style="opacity:1" fill="#5d84a6" d="M 160.5,97.5 C 159.198,99.8218 157.198,101.155 154.5,101.5C 156.034,99.631 158.034,98.2977 160.5,97.5 Z"/></g>
<g><path style="opacity:1" fill="#20212b" d="M 648.5,66.5 C 649.167,67.8333 649.833,69.1667 650.5,70.5C 650.334,74.5138 650.501,78.5138 651,82.5C 654.951,94.9326 663.451,100.266 676.5,98.5C 676.082,99.2216 675.416,99.7216 674.5,100C 662.946,100.985 654.613,96.1518 649.5,85.5C 642.79,100.023 631.457,105.856 615.5,103C 605.254,99.2647 599.254,92.098 597.5,81.5C 597.263,80.209 597.596,79.209 598.5,78.5C 599.726,85.7129 603.06,91.7129 608.5,96.5C 608.973,97.9063 609.973,98.573 611.5,98.5C 612.6,99.5585 613.934,100.392 615.5,101C 639.074,102.925 649.741,92.092 647.5,68.5C 647.328,67.5084 647.662,66.8417 648.5,66.5 Z"/></g>
<g><path style="opacity:1" fill="#989a9a" d="M 608.5,96.5 C 610.027,96.427 611.027,97.0937 611.5,98.5C 609.973,98.573 608.973,97.9063 608.5,96.5 Z"/></g>
<g><path style="opacity:1" fill="#0c0d1b" d="M 578.5,90.5 C 578.833,90.5 579.167,90.5 579.5,90.5C 582.362,99.5606 588.028,106.227 596.5,110.5C 598.509,112.065 600.843,113.065 603.5,113.5C 603.833,113.5 604.167,113.5 604.5,113.5C 608.907,114.139 613.241,115.139 617.5,116.5C 604.022,118.003 592.522,114.003 583,104.5C 580.271,100.256 578.771,95.5889 578.5,90.5 Z"/></g>
<g><path style="opacity:1" fill="#4569a4" d="M 596.5,110.5 C 599.491,110.166 601.824,111.166 603.5,113.5C 600.843,113.065 598.509,112.065 596.5,110.5 Z"/></g>
<g><path style="opacity:1" fill="#4c75b5" d="M 604.5,113.5 C 609.343,113.117 614.009,113.783 618.5,115.5C 618.376,116.107 618.043,116.44 617.5,116.5C 613.241,115.139 608.907,114.139 604.5,113.5 Z"/></g>
<g><path style="opacity:1" fill="#6185a6" d="M 101.5,136.5 C 100.92,138.749 99.5869,140.415 97.5,141.5C 98.0798,139.251 99.4131,137.585 101.5,136.5 Z"/></g>
<g><path style="opacity:1" fill="#679cd0" d="M 770.5,142.5 C 772.869,150.972 774.869,159.639 776.5,168.5C 772.543,160.444 770.543,151.777 770.5,142.5 Z"/></g>
<g><path style="opacity:1" fill="#6dacdc" d="M 97.5,141.5 C 97.6495,142.552 97.4828,143.552 97,144.5C 91.224,150.943 86.224,157.943 82,165.5C 81.1841,166.823 80.0174,167.489 78.5,167.5C 79.6417,163.883 81.3084,160.55 83.5,157.5C 87.2237,151.418 91.8904,146.084 97.5,141.5 Z"/></g>
<g><path style="opacity:0.749" fill="#6b717a" d="M 791.5,202.5 C 792.414,205.728 792.747,209.061 792.5,212.5C 791.883,212.389 791.383,212.056 791,211.5C 790.195,208.304 790.362,205.304 791.5,202.5 Z"/></g>
<g><path style="opacity:1" fill="#50657a" d="M 64.5,208.5 C 64.3541,212.387 63.6874,216.054 62.5,219.5C 62.1164,215.511 62.783,211.845 64.5,208.5 Z"/></g>
<g><path style="opacity:0.255" fill="#868b97" d="M 793.5,219.5 C 794.267,220.172 794.934,221.005 795.5,222C 793.963,223.11 793.297,224.61 793.5,226.5C 792.167,224.167 792.167,221.833 793.5,219.5 Z"/></g>
<g><path style="opacity:0.075" fill="#979da9" d="M 795.5,230.5 C 795.715,232.179 795.048,233.179 793.5,233.5C 792.086,231.402 792.752,230.402 795.5,230.5 Z"/></g>
<g><path style="opacity:1" fill="#618cb4" d="M 62.5,222.5 C 62.5,239.833 62.5,257.167 62.5,274.5C 59.8562,257.165 59.8562,239.832 62.5,222.5 Z"/></g>
<g><path style="opacity:0.067" fill="#717781" d="M 794.5,235.5 C 795.396,241.648 795.729,247.815 795.5,254C 795.095,254.945 794.428,255.612 793.5,256C 796.003,257.784 796.003,259.451 793.5,261C 794.167,261.667 794.833,262.333 795.5,263C 793.246,265.234 792.58,267.734 793.5,270.5C 790.915,289.515 785.249,307.515 776.5,324.5C 775.817,324.863 775.15,325.196 774.5,325.5C 779.264,315.171 783.431,304.504 787,293.5C 789.497,279.853 791.663,266.186 793.5,252.5C 792.768,247.923 792.435,243.257 792.5,238.5C 792.453,236.962 793.12,235.962 794.5,235.5 Z"/></g>
<g><path style="opacity:1" fill="#455260" d="M 783.5,271.5 C 783.416,275.837 782.416,279.837 780.5,283.5C 780.898,279.239 781.898,275.239 783.5,271.5 Z"/></g>
<g><path style="opacity:1" fill="#1e1a17" d="M 83.5,157.5 C 81.3084,160.55 79.6417,163.883 78.5,167.5C 76.1076,171.278 73.9409,175.278 72,179.5C 68.5674,188.958 66.0674,198.624 64.5,208.5C 62.783,211.845 62.1164,215.511 62.5,219.5C 62.5,220.5 62.5,221.5 62.5,222.5C 59.8562,239.832 59.8562,257.165 62.5,274.5C 62.2743,279.562 62.6076,284.562 63.5,289.5C 64.0534,294.482 64.3867,299.482 64.5,304.5C 63.2749,303.848 62.6083,302.681 62.5,301C 57.9501,271.225 57.4501,241.392 61,211.5C 64.4208,191.227 71.7542,172.56 83,155.5C 83.4643,156.094 83.631,156.761 83.5,157.5 Z"/></g>
<g><path style="opacity:1" fill="#6188ae" d="M 63.5,289.5 C 64.1174,289.611 64.6174,289.944 65,290.5C 65.8303,295.808 66.3303,301.141 66.5,306.5C 65.5,306.167 64.8333,305.5 64.5,304.5C 64.3867,299.482 64.0534,294.482 63.5,289.5 Z"/></g>
<g><path style="opacity:1" fill="#6c737e" d="M 778.5,291.5 C 778.59,294.152 777.924,296.485 776.5,298.5C 776.5,298.167 776.5,297.833 776.5,297.5C 776.595,295.214 777.262,293.214 778.5,291.5 Z"/></g>
<g><path style="opacity:0.129" fill="#60666e" d="M 57.5,319.5 C 58.4959,319.414 59.3292,319.748 60,320.5C 61.5755,323.926 61.7422,327.26 60.5,330.5C 58.3762,327.251 57.3762,323.585 57.5,319.5 Z"/></g>
<g><path style="opacity:1" fill="#4f6f8d" d="M 68.5,321.5 C 70.1181,324.171 70.7847,327.171 70.5,330.5C 69.3428,327.727 68.6761,324.727 68.5,321.5 Z"/></g>
<g><path style="opacity:1" fill="#2e69a3" d="M 776.5,297.5 C 776.5,297.833 776.5,298.167 776.5,298.5C 768.841,320.339 756.508,339.172 739.5,355C 717.957,371.77 694.623,385.437 669.5,396C 645.114,404.795 620.447,412.795 595.5,420C 525.548,435.989 455.215,449.156 384.5,459.5C 381.15,459.335 377.817,459.502 374.5,460C 373.263,460.232 372.263,460.732 371.5,461.5C 356.837,463.722 342.17,465.722 327.5,467.5C 314.987,468.484 302.654,469.817 290.5,471.5C 278.184,472.403 265.85,473.07 253.5,473.5C 237.46,472.604 221.46,471.271 205.5,469.5C 194.768,468.027 184.434,465.361 174.5,461.5C 170.183,459.06 165.517,457.393 160.5,456.5C 136.207,447.012 116.874,431.345 102.5,409.5C 103.873,409.343 105.207,409.51 106.5,410C 109.13,413.632 112.13,416.965 115.5,420C 123.222,426.055 131.222,431.722 139.5,437C 147.116,439.299 154.449,442.299 161.5,446C 169.534,448.254 177.534,450.421 185.5,452.5C 185.918,453.222 186.584,453.722 187.5,454C 208.36,458.762 229.36,461.262 250.5,461.5C 273.951,460.102 297.284,457.769 320.5,454.5C 326.193,454.626 331.86,454.293 337.5,453.5C 353.995,450.95 370.329,448.283 386.5,445.5C 389.5,444.833 392.5,444.167 395.5,443.5C 401.861,443.397 408.194,442.897 414.5,442C 429.916,438.837 445.249,436.003 460.5,433.5C 480.808,429.249 501.475,425.749 522.5,423C 531.574,420.119 540.741,417.619 550,415.5C 558.884,414.482 567.718,413.149 576.5,411.5C 579.057,410.737 581.39,409.57 583.5,408C 585.833,407.667 588.167,407.333 590.5,407C 590.957,406.586 591.291,406.086 591.5,405.5C 597.905,404.462 604.238,403.128 610.5,401.5C 619.984,398.583 629.317,395.583 638.5,392.5C 644.115,391.397 649.782,390.397 655.5,389.5C 655.5,388.5 655.5,387.5 655.5,386.5C 659.078,386.451 662.411,385.785 665.5,384.5C 665.62,383.414 666.287,382.747 667.5,382.5C 670.82,381.703 674.154,381.036 677.5,380.5C 677.5,379.5 677.5,378.5 677.5,377.5C 681.222,376.983 684.888,376.15 688.5,375C 689.833,374.333 690.833,373.333 691.5,372C 696.074,369.582 700.741,367.416 705.5,365.5C 711.548,361.476 717.881,357.976 724.5,355C 726.362,353.634 728.028,352.134 729.5,350.5C 738.717,341.785 747.884,332.785 757,323.5C 759.963,318.539 763.63,314.206 768,310.5C 769.667,306.5 771.333,302.5 773,298.5C 774.011,297.663 775.178,297.33 776.5,297.5 Z"/></g>
<g><path style="opacity:0.569" fill="#777b85" d="M 60.5,337.5 C 61.8333,337.5 63.1667,337.5 64.5,337.5C 64.7947,339.735 64.4614,341.735 63.5,343.5C 61.615,341.947 60.615,339.947 60.5,337.5 Z"/></g>
<g><path style="opacity:1" fill="#658aae" d="M 73.5,341.5 C 75.1498,346.378 76.4831,351.378 77.5,356.5C 74.5874,352.07 73.2541,347.07 73.5,341.5 Z"/></g>
<g><path style="opacity:0.208" fill="#646a72" d="M 774.5,327.5 C 765.495,342.008 754.495,354.841 741.5,366C 739.854,367.821 737.854,368.987 735.5,369.5C 735.511,367.983 736.177,366.816 737.5,366C 750.432,356.069 761.265,344.235 770,330.5C 771.129,328.859 772.629,327.859 774.5,327.5 Z"/></g>
<g><path style="opacity:1" fill="#404d5b" d="M 77.5,358.5 C 79.2766,361.505 80.2766,364.838 80.5,368.5C 78.7234,365.495 77.7234,362.162 77.5,358.5 Z"/></g>
<g><path style="opacity:1" fill="#4988c7" d="M 729.5,350.5 C 728.028,352.134 726.362,353.634 724.5,355C 717.881,357.976 711.548,361.476 705.5,365.5C 706.82,363.636 708.487,361.969 710.5,360.5C 715.529,358.119 720.195,355.286 724.5,352C 726.025,350.991 727.692,350.491 729.5,350.5 Z"/></g>
<g><path style="opacity:0.082" fill="#61656d" d="M 734.5,370.5 C 731.48,373.516 728.146,376.183 724.5,378.5C 726.136,374.443 729.136,371.443 733.5,369.5C 734.107,369.624 734.44,369.957 734.5,370.5 Z"/></g>
<g><path style="opacity:1" fill="#4e6983" d="M 82.5,371.5 C 84.0198,373.89 85.0198,376.557 85.5,379.5C 83.3455,377.383 82.3455,374.716 82.5,371.5 Z"/></g>
<g><path style="opacity:0.004" fill="#575c63" d="M 723.5,378.5 C 716.527,383.324 709.194,387.658 701.5,391.5C 701.281,390.325 701.614,389.325 702.5,388.5C 708.365,384.81 714.365,381.31 720.5,378C 721.749,377.26 722.749,377.427 723.5,378.5 Z"/></g>
<g><path style="opacity:1" fill="#4786c6" d="M 665.5,384.5 C 662.411,385.785 659.078,386.451 655.5,386.5C 655.5,387.5 655.5,388.5 655.5,389.5C 649.782,390.397 644.115,391.397 638.5,392.5C 643.494,390.324 648.827,388.991 654.5,388.5C 654.5,387.5 654.5,386.5 654.5,385.5C 658.154,385.058 661.821,384.724 665.5,384.5 Z"/></g>
<g><path style="opacity:0.129" fill="#62666e" d="M 700.5,391.5 C 699.035,392.737 697.368,393.737 695.5,394.5C 695.5,393.5 695.5,392.5 695.5,391.5C 697.398,390.904 699.065,390.904 700.5,391.5 Z"/></g>
<g><path style="opacity:0.427" fill="#545960" d="M 694.5,394.5 C 692.92,396.805 690.92,397.472 688.5,396.5C 689.315,394.698 690.815,393.698 693,393.5C 693.765,393.57 694.265,393.903 694.5,394.5 Z"/></g>
<g><path style="opacity:0.341" fill="#43474b" d="M 687.5,397.5 C 685.97,399.346 683.97,400.346 681.5,400.5C 681.5,399.5 681.5,398.5 681.5,397.5C 683.691,396.709 685.691,396.709 687.5,397.5 Z"/></g>
<g><path style="opacity:0.893" fill="#474a4f" d="M 676.5,402.5 C 670.346,406.059 663.68,408.725 656.5,410.5C 656.5,409.5 656.5,408.5 656.5,407.5C 659.166,407.067 661.832,406.567 664.5,406C 668.087,402.73 672.087,401.563 676.5,402.5 Z"/></g>
<g><path style="opacity:0.106" fill="#5a5e65" d="M 654.5,410.5 C 651.77,412.277 648.77,413.611 645.5,414.5C 645.414,413.504 645.748,412.671 646.5,412C 648.722,411.305 650.889,410.472 653,409.5C 653.765,409.57 654.265,409.903 654.5,410.5 Z"/></g>
<g><path style="opacity:0.098" fill="#575c63" d="M 642.5,415.5 C 641.609,416.11 640.609,416.443 639.5,416.5C 639.5,415.5 639.5,414.5 639.5,413.5C 641.179,413.285 642.179,413.952 642.5,415.5 Z"/></g>
<g><path style="opacity:0.404" fill="#767c86" d="M 63.5,346.5 C 64.1499,346.804 64.8165,347.137 65.5,347.5C 72.9944,379.487 87.6611,407.821 109.5,432.5C 117.719,439.756 126.052,446.756 134.5,453.5C 133.448,453.649 132.448,453.483 131.5,453C 106.253,435.992 88.2533,413.659 77.5,386C 71.5414,373.356 66.8747,360.19 63.5,346.5 Z"/></g>
<g><path style="opacity:0.102" fill="#818694" d="M 636.5,417.5 C 635.791,418.404 634.791,418.737 633.5,418.5C 634.053,416.448 635.053,416.115 636.5,417.5 Z"/></g>
<g><path style="opacity:0.012" fill="#53565b" d="M 629.5,419.5 C 628.791,420.404 627.791,420.737 626.5,420.5C 626.5,419.5 626.5,418.5 626.5,417.5C 628.179,417.285 629.179,417.952 629.5,419.5 Z"/></g>
<g><path style="opacity:0.231" fill="#767b85" d="M 622.5,421.5 C 621.791,422.404 620.791,422.737 619.5,422.5C 620.053,420.448 621.053,420.115 622.5,421.5 Z"/></g>
<g><path style="opacity:0.004" fill="#a9b1bc" d="M 97.5,424.5 C 98.8333,425.167 98.8333,425.167 97.5,424.5 Z"/></g>
<g><path style="opacity:0.149" fill="#4c5056" d="M 614.5,423.5 C 612.539,425.113 610.206,426.113 607.5,426.5C 607.33,425.178 607.663,424.011 608.5,423C 610.712,422.211 612.712,422.378 614.5,423.5 Z"/></g>
<g><path style="opacity:0.227" fill="#717881" d="M 604.5,426.5 C 603.791,427.404 602.791,427.737 601.5,427.5C 602.053,425.448 603.053,425.115 604.5,426.5 Z"/></g>
<g><path style="opacity:0.067" fill="#656b74" d="M 595.5,428.5 C 593.485,429.924 591.152,430.59 588.5,430.5C 589.871,428.859 591.704,427.859 594,427.5C 594.765,427.57 595.265,427.903 595.5,428.5 Z"/></g>
<g><path style="opacity:0.039" fill="#555b63" d="M 582.5,432.5 C 580.401,433.612 578.067,434.279 575.5,434.5C 575.414,433.504 575.748,432.671 576.5,432C 578.712,431.211 580.712,431.378 582.5,432.5 Z"/></g>
<g><path style="opacity:1" fill="#5c6068" d="M 568.5,435.5 C 565.997,436.371 563.33,437.037 560.5,437.5C 562.615,434.483 565.282,433.816 568.5,435.5 Z"/></g>
<g><path style="opacity:1" fill="#4583c2" d="M 460.5,433.5 C 445.249,436.003 429.916,438.837 414.5,442C 408.194,442.897 401.861,443.397 395.5,443.5C 417.028,440.046 438.695,436.713 460.5,433.5 Z"/></g>
<g><path style="opacity:0.031" fill="#7c828e" d="M 550.5,439.5 C 548.898,441.074 546.898,441.741 544.5,441.5C 544.5,440.5 544.5,439.5 544.5,438.5C 546.735,438.205 548.735,438.539 550.5,439.5 Z"/></g>
<g><path style="opacity:0.016" fill="#787e89" d="M 526.5,444.5 C 523.002,445.813 519.336,446.813 515.5,447.5C 515.369,446.624 515.702,445.957 516.5,445.5C 519.855,443.596 523.188,443.263 526.5,444.5 Z"/></g>
<g><path style="opacity:1" fill="#5091d2" d="M 386.5,445.5 C 370.329,448.283 353.995,450.95 337.5,453.5C 331.86,454.293 326.193,454.626 320.5,454.5C 342.216,450.394 364.216,447.394 386.5,445.5 Z"/></g>
<g><path style="opacity:1" fill="#38526e" d="M 160.5,456.5 C 165.517,457.393 170.183,459.06 174.5,461.5C 169.362,460.921 164.695,459.254 160.5,456.5 Z"/></g>
<g><path style="opacity:1" fill="#4c8ccc" d="M 185.5,452.5 C 207.084,456.305 228.751,459.305 250.5,461.5C 229.36,461.262 208.36,458.762 187.5,454C 186.584,453.722 185.918,453.222 185.5,452.5 Z"/></g>
<g><path style="opacity:1" fill="#334960" d="M 384.5,459.5 C 380.343,460.449 376.01,461.116 371.5,461.5C 372.263,460.732 373.263,460.232 374.5,460C 377.817,459.502 381.15,459.335 384.5,459.5 Z"/></g>
<g><path style="opacity:0.34" fill="#383c41" d="M 401.5,466.5 C 394.539,467.745 387.539,468.745 380.5,469.5C 376.39,469.255 372.056,469.255 367.5,469.5C 378.456,466.977 389.623,465.311 401,464.5C 401.464,465.094 401.631,465.761 401.5,466.5 Z"/></g>
<g><path style="opacity:0.633" fill="#6a707a" d="M 380.5,469.5 C 375.029,470.899 369.362,471.899 363.5,472.5C 363.5,471.5 363.5,470.5 363.5,469.5C 364.833,469.5 366.167,469.5 367.5,469.5C 372.056,469.255 376.39,469.255 380.5,469.5 Z"/></g>
<g><path style="opacity:1" fill="#385778" d="M 205.5,469.5 C 221.46,471.271 237.46,472.604 253.5,473.5C 265.85,473.07 278.184,472.403 290.5,471.5C 278.202,473.241 265.702,474.574 253,475.5C 236.852,474.786 221.019,472.786 205.5,469.5 Z"/></g>
<g><path style="opacity:1" fill="#334559" d="M 327.5,467.5 C 315.431,469.941 303.098,471.275 290.5,471.5C 302.654,469.817 314.987,468.484 327.5,467.5 Z"/></g>
<g><path style="opacity:0.106" fill="#696e77" d="M 177.5,473.5 C 162.737,469.743 149.07,463.743 136.5,455.5C 137.251,454.427 138.251,454.26 139.5,455C 151.275,462.255 163.941,467.421 177.5,470.5C 177.5,471.5 177.5,472.5 177.5,473.5 Z"/></g>
<g><path style="opacity:1" fill="#3c3e40" d="M 199.5,476.5 C 196.959,475.897 194.626,475.897 192.5,476.5C 188.126,476.498 184.126,475.498 180.5,473.5C 185.01,473.487 189.677,473.154 194.5,472.5C 197.077,472.747 198.743,474.081 199.5,476.5 Z"/></g>
<g><path style="opacity:0.446" fill="#41464b" d="M 332.5,474.5 C 334.304,473.838 336.304,473.505 338.5,473.5C 340.952,473.539 342.952,474.206 344.5,475.5C 342.833,475.5 341.167,475.5 339.5,475.5C 337.393,474.532 335.059,474.198 332.5,474.5 Z"/></g>
<g><path style="opacity:0.635" fill="#6e737d" d="M 332.5,474.5 C 335.059,474.198 337.393,474.532 339.5,475.5C 336.272,476.414 332.939,476.747 329.5,476.5C 329.821,474.952 330.821,474.285 332.5,474.5 Z"/></g>
<g><path style="opacity:0.318" fill="#61666e" d="M 199.5,476.5 C 204.115,477.285 208.449,478.619 212.5,480.5C 211.883,480.611 211.383,480.944 211,481.5C 204.713,480.036 198.546,478.369 192.5,476.5C 194.626,475.897 196.959,475.897 199.5,476.5 Z"/></g>
<g><path style="opacity:0.133" fill="#4d5359" d="M 319.5,478.5 C 315.321,479.226 311.321,479.226 307.5,478.5C 307.611,477.883 307.944,477.383 308.5,477C 310.333,476.833 312.167,476.667 314,476.5C 316.295,476.547 318.129,477.213 319.5,478.5 Z"/></g>
<g><path style="opacity:0.124" fill="#656b74" d="M 219.5,481.5 C 217.402,482.484 215.402,482.151 213.5,480.5C 214.274,479.853 215.274,479.52 216.5,479.5C 218.03,479.64 219.03,480.307 219.5,481.5 Z"/></g>
<g><path style="opacity:0.153" fill="#777c86" d="M 294.5,480.5 C 293.167,481.833 291.833,481.833 290.5,480.5C 291.833,479.167 293.167,479.167 294.5,480.5 Z"/></g>
<g><path style="opacity:0.4" fill="#4b4f54" d="M 240.5,484.5 C 236.663,484.069 232.997,483.402 229.5,482.5C 229.47,481.503 229.97,480.836 231,480.5C 232.333,481.833 233.667,481.833 235,480.5C 235.945,480.905 236.612,481.572 237,482.5C 238.011,481.663 239.178,481.33 240.5,481.5C 240.5,482.5 240.5,483.5 240.5,484.5 Z"/></g>
<g><path style="opacity:0.051" fill="#585e66" d="M 271.5,482.5 C 269.698,483.458 267.698,484.125 265.5,484.5C 265.5,483.5 265.5,482.5 265.5,481.5C 267.735,481.205 269.735,481.539 271.5,482.5 Z"/></g>
<g><path style="opacity:0.133" fill="#707781" d="M 250.5,484.5 C 249.833,485.833 249.167,485.833 248.5,484.5C 249.167,483.167 249.833,483.167 250.5,484.5 Z"/></g>
<g><path style="opacity:0.016" fill="#4c5056" d="M 262.5,483.5 C 260.012,485.388 257.012,486.055 253.5,485.5C 253.5,484.5 253.5,483.5 253.5,482.5C 256.609,482.264 259.609,482.597 262.5,483.5 Z"/></g>
</svg>
