<?xml version="1.0" encoding="UTF-8"?>
<!DOCTYPE svg PUBLIC "-//W3C//DTD SVG 1.1//EN" "http://www.w3.org/Graphics/SVG/1.1/DTD/svg11.dtd">
<svg xmlns="http://www.w3.org/2000/svg" version="1.1" width="1920px" height="245px" style="shape-rendering:geometricPrecision; text-rendering:geometricPrecision; image-rendering:optimizeQuality; fill-rule:evenodd; clip-rule:evenodd" xmlns:xlink="http://www.w3.org/1999/xlink">
<g><path style="opacity:0.779" fill="#000000" d="M 1919.5,111.5 C 1919.5,112.833 1919.5,114.167 1919.5,115.5C 1913.79,113.295 1908.12,113.628 1902.5,116.5C 1900.48,119.356 1897.98,121.689 1895,123.5C 1894,122.5 1893,121.5 1892,120.5C 1891.89,115.386 1891.22,110.386 1890,105.5C 1888.5,104 1887,102.5 1885.5,101C 1880.98,99.4945 1876.48,97.9945 1872,96.5C 1863.23,99.2448 1855.4,103.745 1848.5,110C 1847.21,110.49 1845.87,110.657 1844.5,110.5C 1842.96,100.243 1837.29,93.4093 1827.5,90C 1820.09,90.8512 1812.75,92.3512 1805.5,94.5C 1799.95,92.8078 1794.95,89.9745 1790.5,86C 1788.28,84.7246 1785.95,83.7246 1783.5,83C 1768.75,83.5438 1754.09,83.0438 1739.5,81.5C 1733.02,81.596 1726.69,82.596 1720.5,84.5C 1717.07,82.2523 1713.74,79.7523 1710.5,77C 1703.46,75.0826 1696.46,74.416 1689.5,75C 1687.33,67.5 1682.5,62.6667 1675,60.5C 1671.76,60.7451 1668.42,60.7451 1665,60.5C 1657.3,62.094 1649.8,64.4273 1642.5,67.5C 1636.77,55.7326 1628.1,52.8992 1616.5,59C 1613.69,60.9773 1611.02,63.144 1608.5,65.5C 1603.46,61.1733 1597.8,59.1733 1591.5,59.5C 1585,48.5431 1575.67,45.3765 1563.5,50C 1557.07,52.7937 1550.9,55.9604 1545,59.5C 1541.98,58.4952 1539.48,56.6619 1537.5,54C 1533.09,52.3732 1528.59,51.2065 1524,50.5C 1513.05,55.0063 1501.89,55.1729 1490.5,51C 1487.42,47.1256 1483.42,44.7923 1478.5,44C 1471.27,42.8894 1463.93,41.3894 1456.5,39.5C 1445.12,52.3931 1431.79,54.8931 1416.5,47C 1412.77,42.4825 1408.1,41.3158 1402.5,43.5C 1395.37,41.1873 1388.04,39.3539 1380.5,38C 1367.47,37.7968 1354.47,37.2968 1341.5,36.5C 1340.56,36.6082 1339.72,36.9415 1339,37.5C 1333.08,34.2079 1327.08,31.2079 1321,28.5C 1311.69,31.0938 1302.19,32.2605 1292.5,32C 1287.19,19.4165 1278.19,15.7499 1265.5,21C 1257.35,25.2932 1248.68,26.6266 1239.5,25C 1231.65,26.0738 1223.82,27.2405 1216,28.5C 1214.5,28.1667 1213,27.8333 1211.5,27.5C 1208.2,22.3973 1204.53,17.564 1200.5,13C 1198.34,12.088 1196.17,11.2546 1194,10.5C 1183.38,12.564 1173.88,16.8973 1165.5,23.5C 1156.63,18.1707 1146.97,16.004 1136.5,17C 1126.06,12.7518 1116.56,14.5851 1108,22.5C 1099.46,10.9285 1088.79,8.2618 1076,14.5C 1069.64,11.0825 1063.31,11.4158 1057,15.5C 1054.16,12.7456 1050.83,10.7456 1047,9.5C 1046.23,9.6448 1045.56,9.97814 1045,10.5C 1039.63,9.11061 1034.13,8.27727 1028.5,8C 1027.45,6.61524 1026.12,5.61524 1024.5,5C 1005.45,3.22856 988.288,8.39522 973,20.5C 965.074,13.5179 956.074,10.8512 946,12.5C 941.333,11.8333 936.667,11.1667 932,10.5C 920.619,11.422 909.453,12.2553 898.5,13C 889.748,15.2968 881.581,18.7968 874,23.5C 873.167,23.3333 872.333,23.1667 871.5,23C 866.477,15.9053 859.643,12.4053 851,12.5C 841.615,12.2094 832.115,13.0427 822.5,15C 816.977,16.0979 811.977,18.2646 807.5,21.5C 797.69,15.9432 787.69,15.7765 777.5,21C 775.316,23.0165 773.316,25.1831 771.5,27.5C 767.674,19.9881 761.674,15.6547 753.5,14.5C 743.856,15.2356 735.189,18.4023 727.5,24C 717.607,24.5966 707.773,25.4299 698,26.5C 694.07,22.8491 690.236,19.0157 686.5,15C 684.341,14.088 682.175,13.2546 680,12.5C 665.67,12.6611 654.837,19.1611 647.5,32C 632.775,32.7128 617.942,33.2128 603,33.5C 588.857,29.7882 574.524,29.1215 560,31.5C 558.774,31.3552 557.607,31.0219 556.5,30.5C 543.887,33.2309 531.22,35.7309 518.5,38C 504.748,37.5233 490.914,38.6899 477,41.5C 474.277,40.4585 471.777,38.9585 469.5,37C 463.69,35.2562 457.857,33.7562 452,32.5C 449.457,34.3543 446.624,35.5209 443.5,36C 430.477,36.8366 417.811,39.5032 405.5,44C 399.366,44.2132 393.366,45.2132 387.5,47C 383.473,51.6901 378.806,55.6901 373.5,59C 366.538,59.9534 359.705,61.12 353,62.5C 349.24,61.7962 345.573,61.7962 342,62.5C 338.062,61.2238 334.062,60.2238 330,59.5C 324.562,59.1463 319.062,59.6463 313.5,61C 310.397,65.0907 306.397,68.0907 301.5,70C 291.744,70.5799 283.411,74.2466 276.5,81C 261.612,84.92 246.612,88.2533 231.5,91C 216.47,93.0083 201.47,95.175 186.5,97.5C 176.508,97.5055 168.841,93.3388 163.5,85C 156.254,86.5559 148.921,86.8892 141.5,86C 136.077,89.844 131.077,94.1774 126.5,99C 119.329,101.296 112.329,103.963 105.5,107C 84.8183,109.079 64.1516,111.412 43.5,114C 35.5578,115.644 28.2245,118.644 21.5,123C 14.0606,124.891 6.72724,127.058 -0.5,129.5C -0.5,128.167 -0.5,126.833 -0.5,125.5C 10.0696,123.144 20.0696,119.31 29.5,114C 33.5,112.667 37.5,111.333 41.5,110C 62.4858,107.525 83.4858,105.192 104.5,103C 111.167,100.667 117.833,98.3333 124.5,96C 129.19,90.6461 134.523,85.9794 140.5,82C 148.561,82.7657 156.561,82.4324 164.5,81C 170.954,90.6001 179.954,94.6001 191.5,93C 204.764,90.5631 218.097,88.5631 231.5,87C 244.138,84.1707 256.804,81.5041 269.5,79C 275.97,76.5346 281.97,73.2013 287.5,69C 292.582,67.986 297.582,66.6527 302.5,65C 306.344,62.578 310.01,59.9113 313.5,57C 316.188,56.6076 318.855,56.1076 321.5,55.5C 331.957,55.9653 342.29,57.2986 352.5,59.5C 358.417,58.0983 364.417,57.2649 370.5,57C 376.482,53.3498 381.482,48.6831 385.5,43C 400.898,40.9183 415.565,37.585 429.5,33C 438.01,32.8729 446.343,31.7063 454.5,29.5C 456.5,29.6667 458.5,29.8333 460.5,30C 467.205,31.7978 473.705,33.9645 480,36.5C 487.511,35.546 495.011,34.546 502.5,33.5C 506.474,33.5238 510.474,33.8572 514.5,34.5C 533.301,30.3404 552.301,27.3404 571.5,25.5C 578.697,25.3133 585.864,26.3133 593,28.5C 596.88,27.3349 600.714,27.6682 604.5,29.5C 615.181,28.8615 625.681,28.8615 636,29.5C 639.076,28.7117 642.242,28.2117 645.5,28C 656.117,10.6623 670.784,5.32894 689.5,12C 692.538,14.7026 695.205,17.7026 697.5,21C 699.101,21.2734 700.601,21.7734 702,22.5C 709.779,21.6681 717.613,20.8348 725.5,20C 734.133,14.4555 743.633,11.2888 754,10.5C 761.354,11.8482 767.354,15.5149 772,21.5C 772.93,19.4476 774.43,17.9476 776.5,17C 782.271,14.3893 788.271,13.0559 794.5,13C 799.149,14.119 803.649,15.619 808,17.5C 809.731,15.3834 811.898,13.8834 814.5,13C 829.711,8.66543 845.045,7.66543 860.5,10C 866.106,11.6075 870.606,14.7741 874,19.5C 884.57,12.0735 896.403,8.07348 909.5,7.5C 924.441,7.51521 939.441,7.51521 954.5,7.5C 961.189,9.34492 967.522,12.0116 973.5,15.5C 984.975,5.62753 998.309,1.29419 1013.5,2.5C 1025.14,3.99095 1036.8,5.15762 1048.5,6C 1051.88,7.10681 1055.05,8.60681 1058,10.5C 1064.07,7.94191 1070.07,7.94191 1076,10.5C 1088.42,4.7908 1099.59,6.7908 1109.5,16.5C 1112.13,13.4508 1115.47,11.6175 1119.5,11C 1122.97,10.9948 1126.3,10.8281 1129.5,10.5C 1137.26,12.9888 1145.26,14.1554 1153.5,14C 1157.33,15.5 1161.17,17 1165,18.5C 1173.38,12.0883 1182.88,8.08829 1193.5,6.5C 1197.07,6.96925 1200.41,8.13592 1203.5,10C 1207.7,14.8992 1211.53,20.0659 1215,25.5C 1227.71,21.387 1240.54,20.0537 1253.5,21.5C 1261.14,17.9528 1269.14,15.6195 1277.5,14.5C 1286.65,15.6568 1292.32,20.6568 1294.5,29.5C 1303.16,27.8361 1311.82,26.1694 1320.5,24.5C 1327.62,26.1305 1333.96,29.2971 1339.5,34C 1344.09,34.1971 1348.59,34.6971 1353,35.5C 1366.44,32.8468 1379.6,33.3468 1392.5,37C 1394.17,38 1395.83,39 1397.5,40C 1403.5,40.3333 1409.5,40.6667 1415.5,41C 1429.12,50.6717 1441.46,49.3384 1452.5,37C 1453.73,36.2189 1455.06,35.7189 1456.5,35.5C 1467.9,36.9105 1478.9,39.7439 1489.5,44C 1490.83,45.3333 1492.17,46.6667 1493.5,48C 1497.38,48.2565 1501.04,49.2565 1504.5,51C 1507.17,51.6667 1509.83,51.6667 1512.5,51C 1515.86,48.822 1519.53,47.322 1523.5,46.5C 1527.74,47.7494 1532.07,48.5827 1536.5,49C 1539.9,50.3999 1542.74,52.5665 1545,55.5C 1554.28,49.0735 1564.61,45.4068 1576,44.5C 1583.1,45.8015 1588.93,49.3015 1593.5,55C 1599.1,55.3644 1604.1,57.1977 1608.5,60.5C 1614.31,55.7064 1620.97,52.7064 1628.5,51.5C 1635.99,52.4088 1641.66,56.0754 1645.5,62.5C 1655.84,57.9757 1666.51,56.1423 1677.5,57C 1685.09,59.0916 1689.76,63.925 1691.5,71.5C 1693.85,71.3305 1696.18,70.9971 1698.5,70.5C 1704.85,71.3841 1710.85,73.2174 1716.5,76C 1718.02,77.3513 1719.35,78.8513 1720.5,80.5C 1732.38,76.8757 1744.38,76.5424 1756.5,79.5C 1765.8,78.3859 1775.14,78.2193 1784.5,79C 1790.8,82.1516 1796.8,85.8183 1802.5,90C 1808.91,89.8181 1815.25,88.8181 1821.5,87C 1826.94,85.8263 1831.94,86.8263 1836.5,90C 1841.48,93.9701 1845.31,98.8035 1848,104.5C 1852.29,101.297 1856.79,98.4638 1861.5,96C 1871.53,91.7017 1881.03,92.8684 1890,99.5C 1894.38,104.653 1896.38,110.653 1896,117.5C 1902.68,110.656 1910.52,108.656 1919.5,111.5 Z"/></g>
<g><path style="opacity:1" fill="#64b1fe" d="M 1919.5,115.5 C 1919.5,153.167 1919.5,190.833 1919.5,228.5C 1915.63,229.434 1911.96,230.934 1908.5,233C 1900.56,235.28 1894.73,232.78 1891,225.5C 1890.18,220.487 1889.52,215.487 1889,210.5C 1886.77,208.3 1884.27,206.467 1881.5,205C 1880.02,202.555 1878.19,200.388 1876,198.5C 1859.34,213.625 1847.17,210.458 1839.5,189C 1831.51,190.141 1823.51,191.641 1815.5,193.5C 1803.59,191.341 1799.76,184.675 1804,173.5C 1805.83,171.333 1807.67,169.167 1809.5,167C 1804.54,165.782 1799.54,165.449 1794.5,166C 1787.19,169.246 1779.52,171.413 1771.5,172.5C 1767.62,171.559 1763.95,170.059 1760.5,168C 1757.78,164.943 1755.44,161.61 1753.5,158C 1746.22,157.487 1738.89,158.154 1731.5,160C 1723.21,168.876 1713.21,171.876 1701.5,169C 1699.67,167.167 1697.83,165.333 1696,163.5C 1687.12,168.309 1678.95,167.309 1671.5,160.5C 1669.85,158.35 1668.02,156.35 1666,154.5C 1663.67,155.833 1661.33,155.833 1659,154.5C 1655.81,156.43 1652.47,158.097 1649,159.5C 1644.71,156.941 1640.21,154.774 1635.5,153C 1622.78,153.642 1611.12,150.642 1600.5,144C 1577.73,139.76 1554.9,138.26 1532,139.5C 1516.57,137.909 1501.07,136.576 1485.5,135.5C 1476.67,135.533 1467.84,135.533 1459,135.5C 1447.69,135.944 1436.52,137.278 1425.5,139.5C 1421.62,138.19 1417.62,137.356 1413.5,137C 1410.32,134.486 1407.16,131.986 1404,129.5C 1394.05,129.748 1384.38,129.748 1375,129.5C 1365.74,130.467 1356.57,132.134 1347.5,134.5C 1336.57,131.935 1332.24,125.268 1334.5,114.5C 1326.45,115.206 1318.45,116.373 1310.5,118C 1303.29,123.135 1295.29,125.135 1286.5,124C 1279.9,120.632 1277.23,115.466 1278.5,108.5C 1276.94,108.481 1275.44,108.148 1274,107.5C 1251.69,115.164 1228.86,118.331 1205.5,117C 1198.42,115.248 1193.09,111.248 1189.5,105C 1186.77,104.272 1184.1,104.438 1181.5,105.5C 1175.84,103.503 1170.18,101.503 1164.5,99.5C 1162.04,102.458 1159.38,105.291 1156.5,108C 1140.66,114.877 1124.32,116.21 1107.5,112C 1104.17,110 1101.5,107.333 1099.5,104C 1095.59,102.622 1091.59,102.622 1087.5,104C 1072.57,111.709 1057.23,113.709 1041.5,110C 1037.67,107.512 1035.51,104.012 1035,99.5C 1033.61,98.4464 1032.11,98.2797 1030.5,99C 1026.89,105.274 1021.56,109.274 1014.5,111C 1006.02,112.422 997.022,112.422 987.5,111C 980.402,108.901 975.568,104.401 973,97.5C 964.416,101.26 955.583,102.427 946.5,101C 939.455,98.024 935.789,93.024 935.5,86C 932.36,84.7771 929.193,84.2771 926,84.5C 922.799,93.3653 916.632,99.1986 907.5,102C 887.196,103.87 866.863,105.536 846.5,107C 841.471,108.775 836.304,109.941 831,110.5C 821.879,110.227 812.545,110.227 803,110.5C 799.134,107.663 794.967,105.163 790.5,103C 779.602,99.495 769.936,101.495 761.5,109C 753.264,109.826 745.264,110.159 737.5,110C 729.872,103.879 721.206,101.879 711.5,104C 705.673,106.081 700.673,109.414 696.5,114C 693.964,114.339 691.464,114.839 689,115.5C 680.95,105.148 670.45,101.315 657.5,104C 653.385,105.223 649.718,107.223 646.5,110C 636.68,109.371 627.68,111.704 619.5,117C 615.459,117.827 611.459,117.66 607.5,116.5C 606.62,113.988 605.287,111.821 603.5,110C 592.466,109.585 581.466,110.752 570.5,113.5C 565.645,122.027 558.479,125.027 549,122.5C 542.018,123.632 535.018,124.632 528,125.5C 525.034,122.53 521.867,119.863 518.5,117.5C 500.166,117.657 481.999,120.657 464,126.5C 462.463,125.886 461.13,125.886 460,126.5C 458.559,125.13 456.892,124.13 455,123.5C 452.525,130.596 448.025,136.096 441.5,140C 433.064,145.562 423.897,148.395 414,148.5C 405.238,146.737 400.238,141.403 399,132.5C 396.956,131.228 395.122,131.561 393.5,133.5C 389.977,144.189 382.643,150.356 371.5,152C 363.599,153.53 355.599,153.53 347.5,152C 342.884,149.718 339.217,146.384 336.5,142C 330.676,140.493 327.176,142.659 326,148.5C 322.958,151.933 319.458,154.766 315.5,157C 303.237,159.576 290.904,161.909 278.5,164C 256.834,164.7 235.334,165.2 214,165.5C 211.384,163.888 209.05,161.888 207,159.5C 205.623,161.754 204.123,163.92 202.5,166C 197.346,168.244 192.013,169.91 186.5,171C 174.654,177.59 162.321,183.09 149.5,187.5C 147.462,186.366 145.462,186.366 143.5,187.5C 141.111,186.82 138.778,185.986 136.5,185C 133.291,182.015 130.458,178.849 128,175.5C 124.106,176.464 120.273,177.631 116.5,179C 114.841,181.93 114.508,184.93 115.5,188C 110.651,192.681 105.985,197.515 101.5,202.5C 95.4441,201.111 90.7774,197.777 87.5,192.5C 75.3004,200.531 62.967,208.364 50.5,216C 39.2937,217.271 28.127,218.438 17,219.5C 14.8953,216.936 13.062,214.269 11.5,211.5C 9.01625,213.483 6.68292,215.65 4.5,218C 2.97506,219.009 1.30839,219.509 -0.5,219.5C -0.5,189.5 -0.5,159.5 -0.5,129.5C 6.72724,127.058 14.0606,124.891 21.5,123C 28.2245,118.644 35.5578,115.644 43.5,114C 64.1516,111.412 84.8183,109.079 105.5,107C 112.329,103.963 119.329,101.296 126.5,99C 131.077,94.1774 136.077,89.844 141.5,86C 148.921,86.8892 156.254,86.5559 163.5,85C 168.841,93.3388 176.508,97.5055 186.5,97.5C 201.47,95.175 216.47,93.0083 231.5,91C 246.612,88.2533 261.612,84.92 276.5,81C 283.411,74.2466 291.744,70.5799 301.5,70C 306.397,68.0907 310.397,65.0907 313.5,61C 319.062,59.6463 324.562,59.1463 330,59.5C 334.062,60.2238 338.062,61.2238 342,62.5C 345.573,61.7962 349.24,61.7962 353,62.5C 359.705,61.12 366.538,59.9534 373.5,59C 378.806,55.6901 383.473,51.6901 387.5,47C 393.366,45.2132 399.366,44.2132 405.5,44C 417.811,39.5032 430.477,36.8366 443.5,36C 446.624,35.5209 449.457,34.3543 452,32.5C 457.857,33.7562 463.69,35.2562 469.5,37C 471.777,38.9585 474.277,40.4585 477,41.5C 490.914,38.6899 504.748,37.5233 518.5,38C 531.22,35.7309 543.887,33.2309 556.5,30.5C 557.607,31.0219 558.774,31.3552 560,31.5C 574.524,29.1215 588.857,29.7882 603,33.5C 617.942,33.2128 632.775,32.7128 647.5,32C 654.837,19.1611 665.67,12.6611 680,12.5C 682.175,13.2546 684.341,14.088 686.5,15C 690.236,19.0157 694.07,22.8491 698,26.5C 707.773,25.4299 717.607,24.5966 727.5,24C 735.189,18.4023 743.856,15.2356 753.5,14.5C 761.674,15.6547 767.674,19.9881 771.5,27.5C 773.316,25.1831 775.316,23.0165 777.5,21C 787.69,15.7765 797.69,15.9432 807.5,21.5C 811.977,18.2646 816.977,16.0979 822.5,15C 832.115,13.0427 841.615,12.2094 851,12.5C 859.643,12.4053 866.477,15.9053 871.5,23C 872.333,23.1667 873.167,23.3333 874,23.5C 881.581,18.7968 889.748,15.2968 898.5,13C 909.453,12.2553 920.619,11.422 932,10.5C 936.667,11.1667 941.333,11.8333 946,12.5C 956.074,10.8512 965.074,13.5179 973,20.5C 988.288,8.39522 1005.45,3.22856 1024.5,5C 1026.12,5.61524 1027.45,6.61524 1028.5,8C 1034.13,8.27727 1039.63,9.11061 1045,10.5C 1045.56,9.97814 1046.23,9.6448 1047,9.5C 1050.83,10.7456 1054.16,12.7456 1057,15.5C 1063.31,11.4158 1069.64,11.0825 1076,14.5C 1088.79,8.2618 1099.46,10.9285 1108,22.5C 1116.56,14.5851 1126.06,12.7518 1136.5,17C 1146.97,16.004 1156.63,18.1707 1165.5,23.5C 1173.88,16.8973 1183.38,12.564 1194,10.5C 1196.17,11.2546 1198.34,12.088 1200.5,13C 1204.53,17.564 1208.2,22.3973 1211.5,27.5C 1213,27.8333 1214.5,28.1667 1216,28.5C 1223.82,27.2405 1231.65,26.0738 1239.5,25C 1248.68,26.6266 1257.35,25.2932 1265.5,21C 1278.19,15.7499 1287.19,19.4165 1292.5,32C 1302.19,32.2605 1311.69,31.0938 1321,28.5C 1327.08,31.2079 1333.08,34.2079 1339,37.5C 1339.72,36.9415 1340.56,36.6082 1341.5,36.5C 1354.47,37.2968 1367.47,37.7968 1380.5,38C 1388.04,39.3539 1395.37,41.1873 1402.5,43.5C 1408.1,41.3158 1412.77,42.4825 1416.5,47C 1431.79,54.8931 1445.12,52.3931 1456.5,39.5C 1463.93,41.3894 1471.27,42.8894 1478.5,44C 1483.42,44.7923 1487.42,47.1256 1490.5,51C 1501.89,55.1729 1513.05,55.0063 1524,50.5C 1528.59,51.2065 1533.09,52.3732 1537.5,54C 1539.48,56.6619 1541.98,58.4952 1545,59.5C 1550.9,55.9604 1557.07,52.7937 1563.5,50C 1575.67,45.3765 1585,48.5431 1591.5,59.5C 1597.8,59.1733 1603.46,61.1733 1608.5,65.5C 1611.02,63.144 1613.69,60.9773 1616.5,59C 1628.1,52.8992 1636.77,55.7326 1642.5,67.5C 1649.8,64.4273 1657.3,62.094 1665,60.5C 1668.42,60.7451 1671.76,60.7451 1675,60.5C 1682.5,62.6667 1687.33,67.5 1689.5,75C 1696.46,74.416 1703.46,75.0826 1710.5,77C 1713.74,79.7523 1717.07,82.2523 1720.5,84.5C 1726.69,82.596 1733.02,81.596 1739.5,81.5C 1754.09,83.0438 1768.75,83.5438 1783.5,83C 1785.95,83.7246 1788.28,84.7246 1790.5,86C 1794.95,89.9745 1799.95,92.8078 1805.5,94.5C 1812.75,92.3512 1820.09,90.8512 1827.5,90C 1837.29,93.4093 1842.96,100.243 1844.5,110.5C 1845.87,110.657 1847.21,110.49 1848.5,110C 1855.4,103.745 1863.23,99.2448 1872,96.5C 1876.48,97.9945 1880.98,99.4945 1885.5,101C 1887,102.5 1888.5,104 1890,105.5C 1891.22,110.386 1891.89,115.386 1892,120.5C 1893,121.5 1894,122.5 1895,123.5C 1897.98,121.689 1900.48,119.356 1902.5,116.5C 1908.12,113.628 1913.79,113.295 1919.5,115.5 Z"/></g>
<g><path style="opacity:1" fill="#4b608b" d="M 1062.5,40.5 C 1060.35,40.1218 1058.19,39.7885 1056,39.5C 1052.46,40.3537 1048.96,41.3537 1045.5,42.5C 1049.78,38.8432 1054.78,37.6765 1060.5,39C 1061.42,39.2784 1062.08,39.7784 1062.5,40.5 Z"/></g>
<g><path style="opacity:1" fill="#fafaf9" d="M 1062.5,40.5 C 1062.97,41.9063 1063.97,42.573 1065.5,42.5C 1073.05,50.34 1074.55,59.34 1070,69.5C 1062.97,76.9005 1054.8,78.4005 1045.5,74C 1043.96,72.6288 1042.63,71.1288 1041.5,69.5C 1036.24,61.8687 1036.24,54.2021 1041.5,46.5C 1043.17,45.5 1044.5,44.1667 1045.5,42.5C 1048.96,41.3537 1052.46,40.3537 1056,39.5C 1058.19,39.7885 1060.35,40.1218 1062.5,40.5 Z"/></g>
<g><path style="opacity:1" fill="#717f9d" d="M 1083.5,43.5 C 1084.79,42.8418 1086.29,42.5085 1088,42.5C 1090.82,42.4078 1093.32,43.0744 1095.5,44.5C 1091.53,43.8379 1087.53,43.5045 1083.5,43.5 Z"/></g>
<g><path style="opacity:1" fill="#f8f8f7" d="M 1083.5,43.5 C 1087.53,43.5045 1091.53,43.8379 1095.5,44.5C 1101.76,49.709 1104.1,56.3757 1102.5,64.5C 1097.66,73.9184 1090.32,76.585 1080.5,72.5C 1074.94,66.4673 1073.27,59.4673 1075.5,51.5C 1076.91,51.0269 1077.57,50.0269 1077.5,48.5C 1079.54,46.823 1081.54,45.1563 1083.5,43.5 Z"/></g>
<g><path style="opacity:1" fill="#55678d" d="M 1095.5,44.5 C 1099.15,45.9894 1101.65,48.6561 1103,52.5C 1103.81,56.6888 1103.65,60.6888 1102.5,64.5C 1104.1,56.3757 1101.76,49.709 1095.5,44.5 Z"/></g>
<g><path style="opacity:1" fill="#41455f" d="M 1077.5,48.5 C 1077.57,50.0269 1076.91,51.0269 1075.5,51.5C 1075.43,49.9731 1076.09,48.9731 1077.5,48.5 Z"/></g>
<g><path style="opacity:1" fill="#191919" d="M 1059.5,54.5 C 1063.14,53.7366 1064.64,55.0699 1064,58.5C 1060.33,60.0093 1058.83,58.6759 1059.5,54.5 Z"/></g>
<g><path style="opacity:1" fill="#191919" d="M 1083.5,54.5 C 1087.14,53.7366 1088.64,55.0699 1088,58.5C 1084.33,60.0093 1082.83,58.6759 1083.5,54.5 Z"/></g>
<g><path style="opacity:1" fill="#394463" d="M 1041.5,46.5 C 1036.24,54.2021 1036.24,61.8687 1041.5,69.5C 1040.83,69.5 1040.5,69.8333 1040.5,70.5C 1036.32,64.3657 1035.48,57.699 1038,50.5C 1038.66,48.6763 1039.83,47.343 1041.5,46.5 Z"/></g>
<g><path style="opacity:1" fill="#272933" d="M 1065.5,42.5 C 1069.5,44.9065 1072.83,47.9065 1075.5,51.5C 1073.27,59.4673 1074.94,66.4673 1080.5,72.5C 1079.5,72.5858 1078.67,72.2524 1078,71.5C 1076.67,69.5 1075.33,67.5 1074,65.5C 1067.15,78.1184 1057.31,81.2851 1044.5,75C 1042.96,73.6288 1041.63,72.1288 1040.5,70.5C 1040.5,69.8333 1040.83,69.5 1041.5,69.5C 1042.63,71.1288 1043.96,72.6288 1045.5,74C 1054.8,78.4005 1062.97,76.9005 1070,69.5C 1074.55,59.34 1073.05,50.34 1065.5,42.5 Z"/></g>
<g><path style="opacity:1" fill="#262a3f" d="M 1102.5,64.5 C 1101.53,69.6466 1098.53,73.1466 1093.5,75C 1090.17,75.6667 1086.83,75.6667 1083.5,75C 1082.06,74.6232 1081.06,73.7899 1080.5,72.5C 1090.32,76.585 1097.66,73.9184 1102.5,64.5 Z"/></g>
<g><path style="opacity:1" fill="#0f121f" d="M 1045.5,85.5 C 1046.5,86.1667 1047.5,86.8333 1048.5,87.5C 1040.02,88.2863 1032.86,85.6196 1027,79.5C 1024.25,74.8218 1022.91,69.8218 1023,64.5C 1025.6,76.935 1033.1,83.935 1045.5,85.5 Z"/></g>
<g><path style="opacity:0.781" fill="#000000" d="M 1919.5,228.5 C 1919.5,229.833 1919.5,231.167 1919.5,232.5C 1915.86,233.985 1912.19,235.485 1908.5,237C 1893.19,238.516 1885.85,231.682 1886.5,216.5C 1885.99,214.775 1885.32,213.108 1884.5,211.5C 1881.4,209.902 1878.73,207.735 1876.5,205C 1870.98,207.295 1865.31,209.628 1859.5,212C 1851.97,212.818 1846.13,209.985 1842,203.5C 1840.22,199.907 1838.72,196.24 1837.5,192.5C 1831.94,194.068 1826.28,195.568 1820.5,197C 1810.47,199.218 1803.3,195.718 1799,186.5C 1796.9,180.044 1798.07,174.211 1802.5,169C 1798.67,168.242 1795.34,169.242 1792.5,172C 1785.45,174.055 1778.28,175.555 1771,176.5C 1762.22,174.518 1755.39,169.684 1750.5,162C 1744.75,161.761 1739.08,162.427 1733.5,164C 1725.13,172.124 1715.13,175.457 1703.5,174C 1700.64,173.07 1698.31,171.403 1696.5,169C 1691.13,169.013 1685.79,169.347 1680.5,170C 1674.7,167.874 1669.7,164.54 1665.5,160C 1663.78,159.654 1662.12,159.154 1660.5,158.5C 1656.24,160.364 1651.91,162.031 1647.5,163.5C 1642.96,161.063 1638.29,158.896 1633.5,157C 1629.91,156.211 1626.41,156.378 1623,157.5C 1618.68,155.73 1614.18,154.563 1609.5,154C 1601.93,148.032 1593.26,145.032 1583.5,145C 1573.49,144.233 1563.49,143.399 1553.5,142.5C 1546.5,142.768 1539.5,143.101 1532.5,143.5C 1516.87,141.991 1501.21,140.658 1485.5,139.5C 1476.02,139.663 1466.52,139.663 1457,139.5C 1445.74,140.278 1434.57,141.612 1423.5,143.5C 1419.23,142.121 1414.9,140.954 1410.5,140C 1407.69,138.356 1405.36,136.19 1403.5,133.5C 1393.88,133.913 1384.21,133.913 1374.5,133.5C 1365.26,133.802 1356.26,135.468 1347.5,138.5C 1336.7,136.699 1330.7,130.366 1329.5,119.5C 1323.06,119.463 1316.72,120.296 1310.5,122C 1308.16,124.786 1305.16,126.453 1301.5,127C 1286.68,131.341 1277.18,126.175 1273,111.5C 1258.74,117.13 1243.91,120.463 1228.5,121.5C 1220.24,121.491 1211.9,121.325 1203.5,121C 1201.39,120.64 1199.39,119.973 1197.5,119C 1193.69,116.105 1190.36,112.772 1187.5,109C 1184.54,109.32 1181.54,109.32 1178.5,109C 1174.6,107.219 1170.6,105.719 1166.5,104.5C 1163.29,107.876 1159.62,110.71 1155.5,113C 1148.72,115.613 1141.72,117.446 1134.5,118.5C 1126.3,118.801 1117.97,118.301 1109.5,117C 1103.53,115.197 1098.87,111.697 1095.5,106.5C 1087.97,108.288 1080.64,110.788 1073.5,114C 1063.86,116.251 1054.19,116.584 1044.5,115C 1038.75,112.921 1034.59,109.088 1032,103.5C 1027.56,109.976 1021.39,113.81 1013.5,115C 1005.5,115.667 997.5,115.667 989.5,115C 980.812,114.328 974.479,110.161 970.5,102.5C 961.286,106.465 951.952,106.965 942.5,104C 936.349,100.521 932.516,95.3542 931,88.5C 929.795,89.0712 928.628,89.7379 927.5,90.5C 924.239,97.5927 918.906,102.426 911.5,105C 890.254,107.814 868.92,109.814 847.5,111C 845.212,111.822 842.878,112.489 840.5,113C 826.53,113.186 813.03,113.686 800,114.5C 787.652,103.084 774.818,102.584 761.5,113C 753.124,114.31 744.791,114.643 736.5,114C 722.179,102.999 709.179,104.332 697.5,118C 694.443,118.256 691.443,118.756 688.5,119.5C 675.38,103.805 660.88,102.472 645,115.5C 641.591,114.378 638.091,114.211 634.5,115C 629.571,116.467 624.904,118.467 620.5,121C 615.833,121.667 611.167,121.667 606.5,121C 604.968,118.966 603.635,116.799 602.5,114.5C 599.367,114.388 596.201,114.055 593,113.5C 587.226,114.697 581.393,115.531 575.5,116C 572.887,118.613 570.221,121.279 567.5,124C 565.913,124.862 564.246,125.529 562.5,126C 551.396,126.026 540.729,127.193 530.5,129.5C 528.885,128.846 527.218,128.346 525.5,128C 522.688,126.023 520.022,123.856 517.5,121.5C 507.954,121.995 498.288,122.828 488.5,124C 480.118,126.012 471.784,128.179 463.5,130.5C 461.161,130.331 458.994,129.664 457,128.5C 456.439,130.725 455.439,132.725 454,134.5C 441.267,148.13 425.767,153.63 407.5,151C 401.508,148.341 397.675,143.841 396,137.5C 391.431,148.886 382.931,155.052 370.5,156C 362.5,156.667 354.5,156.667 346.5,156C 341.334,153.844 337.001,150.511 333.5,146C 332.552,145.517 331.552,145.351 330.5,145.5C 330.509,147.308 330.009,148.975 329,150.5C 325.336,155.175 320.836,158.675 315.5,161C 299.821,164.925 283.987,167.758 268,169.5C 250.47,169.106 232.97,169.106 215.5,169.5C 212.674,169.176 210.174,168.176 208,166.5C 205.749,168.377 203.249,169.877 200.5,171C 183.057,176.975 166.057,183.809 149.5,191.5C 145.481,191.844 141.481,191.344 137.5,190C 132.994,187.311 128.994,184.144 125.5,180.5C 123.432,180.967 121.432,181.634 119.5,182.5C 119.659,185.882 119.159,189.215 118,192.5C 112.614,195.43 108.447,199.597 105.5,205C 102.167,205.667 98.8333,205.667 95.5,205C 92.0484,203.209 88.8817,201.042 86,198.5C 74.6621,206.509 62.8287,213.675 50.5,220C 39.5189,221.345 28.5189,222.511 17.5,223.5C 14.3328,222.999 11.9995,221.333 10.5,218.5C 7.44084,221.53 3.77417,223.197 -0.5,223.5C -0.5,222.167 -0.5,220.833 -0.5,219.5C 1.30839,219.509 2.97506,219.009 4.5,218C 6.68292,215.65 9.01625,213.483 11.5,211.5C 13.062,214.269 14.8953,216.936 17,219.5C 28.127,218.438 39.2937,217.271 50.5,216C 62.967,208.364 75.3004,200.531 87.5,192.5C 90.7774,197.777 95.4441,201.111 101.5,202.5C 105.985,197.515 110.651,192.681 115.5,188C 114.508,184.93 114.841,181.93 116.5,179C 120.273,177.631 124.106,176.464 128,175.5C 130.458,178.849 133.291,182.015 136.5,185C 138.778,185.986 141.111,186.82 143.5,187.5C 145.462,186.366 147.462,186.366 149.5,187.5C 162.321,183.09 174.654,177.59 186.5,171C 192.013,169.91 197.346,168.244 202.5,166C 204.123,163.92 205.623,161.754 207,159.5C 209.05,161.888 211.384,163.888 214,165.5C 235.334,165.2 256.834,164.7 278.5,164C 290.904,161.909 303.237,159.576 315.5,157C 319.458,154.766 322.958,151.933 326,148.5C 327.176,142.659 330.676,140.493 336.5,142C 339.217,146.384 342.884,149.718 347.5,152C 355.599,153.53 363.599,153.53 371.5,152C 382.643,150.356 389.977,144.189 393.5,133.5C 395.122,131.561 396.956,131.228 399,132.5C 400.238,141.403 405.238,146.737 414,148.5C 423.897,148.395 433.064,145.562 441.5,140C 448.025,136.096 452.525,130.596 455,123.5C 456.892,124.13 458.559,125.13 460,126.5C 461.13,125.886 462.463,125.886 464,126.5C 481.999,120.657 500.166,117.657 518.5,117.5C 521.867,119.863 525.034,122.53 528,125.5C 535.018,124.632 542.018,123.632 549,122.5C 558.479,125.027 565.645,122.027 570.5,113.5C 581.466,110.752 592.466,109.585 603.5,110C 605.287,111.821 606.62,113.988 607.5,116.5C 611.459,117.66 615.459,117.827 619.5,117C 627.68,111.704 636.68,109.371 646.5,110C 649.718,107.223 653.385,105.223 657.5,104C 670.45,101.315 680.95,105.148 689,115.5C 691.464,114.839 693.964,114.339 696.5,114C 700.673,109.414 705.673,106.081 711.5,104C 721.206,101.879 729.872,103.879 737.5,110C 745.264,110.159 753.264,109.826 761.5,109C 769.936,101.495 779.602,99.495 790.5,103C 794.967,105.163 799.134,107.663 803,110.5C 812.545,110.227 821.879,110.227 831,110.5C 836.304,109.941 841.471,108.775 846.5,107C 866.863,105.536 887.196,103.87 907.5,102C 916.632,99.1986 922.799,93.3653 926,84.5C 929.193,84.2771 932.36,84.7771 935.5,86C 935.789,93.024 939.455,98.024 946.5,101C 955.583,102.427 964.416,101.26 973,97.5C 975.568,104.401 980.402,108.901 987.5,111C 997.022,112.422 1006.02,112.422 1014.5,111C 1021.56,109.274 1026.89,105.274 1030.5,99C 1032.11,98.2797 1033.61,98.4464 1035,99.5C 1035.51,104.012 1037.67,107.512 1041.5,110C 1057.23,113.709 1072.57,111.709 1087.5,104C 1091.59,102.622 1095.59,102.622 1099.5,104C 1101.5,107.333 1104.17,110 1107.5,112C 1124.32,116.21 1140.66,114.877 1156.5,108C 1159.38,105.291 1162.04,102.458 1164.5,99.5C 1170.18,101.503 1175.84,103.503 1181.5,105.5C 1184.1,104.438 1186.77,104.272 1189.5,105C 1193.09,111.248 1198.42,115.248 1205.5,117C 1228.86,118.331 1251.69,115.164 1274,107.5C 1275.44,108.148 1276.94,108.481 1278.5,108.5C 1277.23,115.466 1279.9,120.632 1286.5,124C 1295.29,125.135 1303.29,123.135 1310.5,118C 1318.45,116.373 1326.45,115.206 1334.5,114.5C 1332.24,125.268 1336.57,131.935 1347.5,134.5C 1356.57,132.134 1365.74,130.467 1375,129.5C 1384.38,129.748 1394.05,129.748 1404,129.5C 1407.16,131.986 1410.32,134.486 1413.5,137C 1417.62,137.356 1421.62,138.19 1425.5,139.5C 1436.52,137.278 1447.69,135.944 1459,135.5C 1467.84,135.533 1476.67,135.533 1485.5,135.5C 1501.07,136.576 1516.57,137.909 1532,139.5C 1554.9,138.26 1577.73,139.76 1600.5,144C 1611.12,150.642 1622.78,153.642 1635.5,153C 1640.21,154.774 1644.71,156.941 1649,159.5C 1652.47,158.097 1655.81,156.43 1659,154.5C 1661.33,155.833 1663.67,155.833 1666,154.5C 1668.02,156.35 1669.85,158.35 1671.5,160.5C 1678.95,167.309 1687.12,168.309 1696,163.5C 1697.83,165.333 1699.67,167.167 1701.5,169C 1713.21,171.876 1723.21,168.876 1731.5,160C 1738.89,158.154 1746.22,157.487 1753.5,158C 1755.44,161.61 1757.78,164.943 1760.5,168C 1763.95,170.059 1767.62,171.559 1771.5,172.5C 1779.52,171.413 1787.19,169.246 1794.5,166C 1799.54,165.449 1804.54,165.782 1809.5,167C 1807.67,169.167 1805.83,171.333 1804,173.5C 1799.76,184.675 1803.59,191.341 1815.5,193.5C 1823.51,191.641 1831.51,190.141 1839.5,189C 1847.17,210.458 1859.34,213.625 1876,198.5C 1878.19,200.388 1880.02,202.555 1881.5,205C 1884.27,206.467 1886.77,208.3 1889,210.5C 1889.52,215.487 1890.18,220.487 1891,225.5C 1894.73,232.78 1900.56,235.28 1908.5,233C 1911.96,230.934 1915.63,229.434 1919.5,228.5 Z"/></g>
<g><path style="opacity:1" fill="#3c5a94" d="M 1045.5,85.5 C 1047.75,85.1814 1049.75,85.6814 1051.5,87C 1050.55,87.4828 1049.55,87.6495 1048.5,87.5C 1047.5,86.8333 1046.5,86.1667 1045.5,85.5 Z"/></g>
</svg>
