<?xml version="1.0" encoding="UTF-8"?>
<!DOCTYPE svg PUBLIC "-//W3C//DTD SVG 1.1//EN" "http://www.w3.org/Graphics/SVG/1.1/DTD/svg11.dtd">
<svg xmlns="http://www.w3.org/2000/svg" version="1.1" width="30px" height="38px" style="shape-rendering:geometricPrecision; text-rendering:geometricPrecision; image-rendering:optimizeQuality; fill-rule:evenodd; clip-rule:evenodd" xmlns:xlink="http://www.w3.org/1999/xlink">
<g><path style="opacity:0.794" fill="#000000" d="M 4.5,10.5 C 6.14387,10.2865 7.64387,10.6198 9,11.5C 10.1954,21.1529 11.3621,21.4862 12.5,12.5C 14.1667,12.5 15.8333,12.5 17.5,12.5C 18.6379,21.4862 19.8046,21.1529 21,11.5C 22.3561,10.6198 23.8561,10.2865 25.5,10.5C 24.8679,15.8622 23.5346,21.0289 21.5,26C 20.1667,26.6667 18.8333,26.6667 17.5,26C 16.4752,23.9285 15.6419,21.7619 15,19.5C 14.0691,21.4595 13.2357,23.4595 12.5,25.5C 10.9547,26.4519 9.28801,26.7852 7.5,26.5C 6.18168,21.2266 5.18168,15.8933 4.5,10.5 Z"/></g>
</svg>
