<?xml version="1.0" encoding="UTF-8"?>
<!DOCTYPE svg PUBLIC "-//W3C//DTD SVG 1.1//EN" "http://www.w3.org/Graphics/SVG/1.1/DTD/svg11.dtd">
<svg xmlns="http://www.w3.org/2000/svg" version="1.1" width="26px" height="32px" style="shape-rendering:geometricPrecision; text-rendering:geometricPrecision; image-rendering:optimizeQuality; fill-rule:evenodd; clip-rule:evenodd" xmlns:xlink="http://www.w3.org/1999/xlink">
<g><path style="opacity:0.739" fill="#000000" d="M -0.5,3.5 C 2.51838,3.33537 5.51838,3.50204 8.5,4C 10,6.16667 11.5,8.33333 13,10.5C 15.1667,8.33333 17.3333,6.16667 19.5,4C 21.2588,3.20245 22.9255,3.36912 24.5,4.5C 21.6246,7.72043 18.6246,10.8871 15.5,14C 18.6984,18.0261 22.0317,21.8595 25.5,25.5C 25.5,26.1667 25.5,26.8333 25.5,27.5C 22.4816,27.6646 19.4816,27.498 16.5,27C 15.0422,24.54 13.2089,22.3734 11,20.5C 8.83333,22.6667 6.66667,24.8333 4.5,27C 2.86586,27.4935 1.19919,27.6602 -0.5,27.5C -0.5,26.8333 -0.5,26.1667 -0.5,25.5C 0.238911,25.631 0.905578,25.4643 1.5,25C 3.6445,22.0211 5.97783,19.1878 8.5,16.5C 5.82483,12.4989 2.82483,8.83225 -0.5,5.5C -0.5,4.83333 -0.5,4.16667 -0.5,3.5 Z M 6.5,7.5 C 7.90632,7.97306 8.57298,8.97306 8.5,10.5C 7.09368,10.0269 6.42702,9.02694 6.5,7.5 Z M 9.5,11.5 C 10.9063,11.9731 11.573,12.9731 11.5,14.5C 10.0937,14.0269 9.42702,13.0269 9.5,11.5 Z M 13.5,16.5 C 14.9063,16.9731 15.573,17.9731 15.5,19.5C 14.0937,19.0269 13.427,18.0269 13.5,16.5 Z M 16.5,20.5 C 17.9063,20.9731 18.573,21.9731 18.5,23.5C 17.0937,23.0269 16.427,22.0269 16.5,20.5 Z"/></g>
</svg>
